<mxfile host="app.diagrams.net" modified="2024-04-29T11:08:41.975Z" agent="Mozilla/5.0 (Macintosh; Intel Mac OS X 10_15_7) AppleWebKit/605.1.15 (KHTML, like Gecko) Version/17.2.1 Safari/605.1.15" etag="r-lyMwVEL5QQuFEPHFy7" version="24.3.1" type="device">
  <diagram name="Seite-1" id="qelqKIjiSz1gGoggRaxS">
    <mxGraphModel dx="1207" dy="708" grid="1" gridSize="10" guides="1" tooltips="1" connect="1" arrows="1" fold="1" page="1" pageScale="1" pageWidth="1654" pageHeight="1169" math="0" shadow="0">
      <root>
        <mxCell id="0" />
        <mxCell id="1" parent="0" />
        <mxCell id="JxyS_UGYLARrwD6C3Eoa-1" value="" style="rounded=0;whiteSpace=wrap;html=1;fillColor=#ffe6cc;strokeColor=#d79b00;" parent="1" vertex="1">
          <mxGeometry x="105" y="79" width="360" height="560" as="geometry" />
        </mxCell>
        <mxCell id="JxyS_UGYLARrwD6C3Eoa-2" value="" style="rounded=0;whiteSpace=wrap;html=1;fillColor=#dae8fc;strokeColor=#6c8ebf;" parent="1" vertex="1">
          <mxGeometry x="720" y="80" width="540" height="680" as="geometry" />
        </mxCell>
        <mxCell id="JxyS_UGYLARrwD6C3Eoa-3" value="&lt;h1&gt;PVE-Source&lt;/h1&gt;&lt;p&gt;- running multiple LXC/VM etc. on ZFS&lt;br&gt;&lt;span style=&quot;background-color: initial;&quot;&gt;- ZFS-AUTO-SNAPSHOT Tool running or installed&lt;br&gt;- public SSH-Key from PVE-Target&lt;/span&gt;&lt;/p&gt;" style="text;html=1;strokeColor=none;fillColor=none;spacing=5;spacingTop=-20;whiteSpace=wrap;overflow=hidden;rounded=0;" parent="1" vertex="1">
          <mxGeometry x="120" y="90" width="280" height="120" as="geometry" />
        </mxCell>
        <mxCell id="JxyS_UGYLARrwD6C3Eoa-4" value="&lt;h1&gt;PVE-Target&lt;/h1&gt;&lt;p&gt;- running 1x Proxmox Backup Server as a LXC&lt;br&gt;&lt;b style=&quot;background-color: initial;&quot;&gt;- does not create&amp;nbsp;&lt;/b&gt;&lt;b&gt;Auto snapshots&lt;/b&gt;&lt;/p&gt;&lt;p&gt;&lt;span style=&quot;background-color: initial;&quot;&gt;- starting miyagi-pbs-zfs at reboot or cron sheduled&lt;/span&gt;&lt;/p&gt;" style="text;html=1;strokeColor=none;fillColor=none;spacing=5;spacingTop=-20;whiteSpace=wrap;overflow=hidden;rounded=0;" parent="1" vertex="1">
          <mxGeometry x="730" y="90" width="440" height="110" as="geometry" />
        </mxCell>
        <mxCell id="JxyS_UGYLARrwD6C3Eoa-11" value="" style="shape=flexArrow;endArrow=classic;html=1;rounded=0;entryX=1;entryY=0.52;entryDx=0;entryDy=0;entryPerimeter=0;exitX=0;exitY=0.5;exitDx=0;exitDy=0;" parent="1" source="JxyS_UGYLARrwD6C3Eoa-27" target="JxyS_UGYLARrwD6C3Eoa-1" edge="1">
          <mxGeometry width="50" height="50" relative="1" as="geometry">
            <mxPoint x="700" y="450" as="sourcePoint" />
            <mxPoint x="750" y="400" as="targetPoint" />
          </mxGeometry>
        </mxCell>
        <mxCell id="JxyS_UGYLARrwD6C3Eoa-12" value="pulling ZFS Volumes and Filesystems by Replication with ZSYNC" style="text;html=1;strokeColor=none;fillColor=none;align=center;verticalAlign=middle;whiteSpace=wrap;rounded=0;" parent="1" vertex="1">
          <mxGeometry x="490" y="320" width="220" height="30" as="geometry" />
        </mxCell>
        <mxCell id="JxyS_UGYLARrwD6C3Eoa-24" value="miyagi-pbs-zfs-Script" style="swimlane;whiteSpace=wrap;html=1;" parent="1" vertex="1">
          <mxGeometry x="730" y="210" width="260" height="540" as="geometry" />
        </mxCell>
        <mxCell id="JxyS_UGYLARrwD6C3Eoa-25" value="Starting with&lt;div&gt;Configfile&lt;/div&gt;" style="rounded=0;whiteSpace=wrap;html=1;" parent="1" vertex="1">
          <mxGeometry x="805" y="240" width="120" height="60" as="geometry" />
        </mxCell>
        <mxCell id="JxyS_UGYLARrwD6C3Eoa-27" value="Marking Source Datasets&lt;div&gt;Creates fresh ZSYNC-Config&lt;br&gt;&lt;div&gt;Running ZSYNC with Config&lt;/div&gt;&lt;/div&gt;&lt;div&gt;creating new Snapshots on Source&lt;/div&gt;" style="rounded=0;whiteSpace=wrap;html=1;" parent="1" vertex="1">
          <mxGeometry x="760" y="340" width="210" height="60" as="geometry" />
        </mxCell>
        <mxCell id="JxyS_UGYLARrwD6C3Eoa-28" value="" style="endArrow=classic;html=1;rounded=0;exitX=0.5;exitY=1;exitDx=0;exitDy=0;entryX=0.5;entryY=0;entryDx=0;entryDy=0;" parent="1" source="JxyS_UGYLARrwD6C3Eoa-25" target="JxyS_UGYLARrwD6C3Eoa-27" edge="1">
          <mxGeometry width="50" height="50" relative="1" as="geometry">
            <mxPoint x="610" y="450" as="sourcePoint" />
            <mxPoint x="660" y="400" as="targetPoint" />
          </mxGeometry>
        </mxCell>
        <mxCell id="JxyS_UGYLARrwD6C3Eoa-29" value="Validates Snapshot GUIDs on&lt;div&gt;Source and Target and pushes extra&lt;/div&gt;&lt;div&gt;Testresults to Sources Check_MK&lt;/div&gt;&lt;div&gt;The Results expire after one day!&lt;/div&gt;" style="rounded=0;whiteSpace=wrap;html=1;" parent="1" vertex="1">
          <mxGeometry x="760" y="440" width="210" height="60" as="geometry" />
        </mxCell>
        <mxCell id="JxyS_UGYLARrwD6C3Eoa-30" value="" style="endArrow=classic;html=1;rounded=0;entryX=0.5;entryY=0;entryDx=0;entryDy=0;exitX=0.5;exitY=1;exitDx=0;exitDy=0;" parent="1" source="JxyS_UGYLARrwD6C3Eoa-27" target="JxyS_UGYLARrwD6C3Eoa-29" edge="1">
          <mxGeometry width="50" height="50" relative="1" as="geometry">
            <mxPoint x="700" y="450" as="sourcePoint" />
            <mxPoint x="750" y="400" as="targetPoint" />
          </mxGeometry>
        </mxCell>
        <mxCell id="JxyS_UGYLARrwD6C3Eoa-31" value="Target Pool/Datastore&lt;div&gt;ZFSTRGT=&#39;rpool-ssd1/repl/pve200&#39;&lt;br&gt;&lt;/div&gt;" style="rounded=0;whiteSpace=wrap;html=1;" parent="1" vertex="1">
          <mxGeometry x="1060" y="330" width="180" height="94" as="geometry" />
        </mxCell>
        <mxCell id="JxyS_UGYLARrwD6C3Eoa-33" value="" style="shape=flexArrow;endArrow=classic;html=1;rounded=0;exitX=1.005;exitY=0.617;exitDx=0;exitDy=0;exitPerimeter=0;entryX=0;entryY=0.5;entryDx=0;entryDy=0;" parent="1" source="JxyS_UGYLARrwD6C3Eoa-27" target="JxyS_UGYLARrwD6C3Eoa-31" edge="1">
          <mxGeometry width="50" height="50" relative="1" as="geometry">
            <mxPoint x="700" y="450" as="sourcePoint" />
            <mxPoint x="1070" y="380" as="targetPoint" />
          </mxGeometry>
        </mxCell>
        <mxCell id="JxyS_UGYLARrwD6C3Eoa-34" value="" style="rounded=0;whiteSpace=wrap;html=1;" parent="1" vertex="1">
          <mxGeometry x="1060" y="533" width="180" height="110" as="geometry" />
        </mxCell>
        <mxCell id="JxyS_UGYLARrwD6C3Eoa-35" value="" style="rounded=0;whiteSpace=wrap;html=1;fillColor=#fff2cc;strokeColor=#d6b656;" parent="1" vertex="1">
          <mxGeometry x="1320" y="406" width="200" height="130" as="geometry" />
        </mxCell>
        <mxCell id="JxyS_UGYLARrwD6C3Eoa-37" value="" style="endArrow=classic;html=1;rounded=0;exitX=1;exitY=0.5;exitDx=0;exitDy=0;entryX=0;entryY=0.5;entryDx=0;entryDy=0;" parent="1" target="JxyS_UGYLARrwD6C3Eoa-35" edge="1">
          <mxGeometry width="50" height="50" relative="1" as="geometry">
            <mxPoint x="971" y="471" as="sourcePoint" />
            <mxPoint x="1321" y="466" as="targetPoint" />
          </mxGeometry>
        </mxCell>
        <mxCell id="JxyS_UGYLARrwD6C3Eoa-38" value="starting on Proxmox Backup Server&lt;div&gt;&lt;b&gt;1. Prune, Garbace Collection&lt;/b&gt;&lt;/div&gt;&lt;div&gt;(only on MAINTENANCE Day)&lt;br&gt;&lt;b&gt;2. Stopping all Scrubbing&lt;/b&gt;&lt;br&gt;&lt;b&gt;3. Triggering Proxmox Backup from Source to Target, followed by Check_MK Result to Source&lt;/b&gt;&lt;br&gt;4. Running Verify Job on PBS&lt;/div&gt;&lt;div&gt;Updating Host and PBS&lt;/div&gt;" style="rounded=0;whiteSpace=wrap;html=1;" parent="1" vertex="1">
          <mxGeometry x="760" y="520" width="210" height="140" as="geometry" />
        </mxCell>
        <mxCell id="JxyS_UGYLARrwD6C3Eoa-39" value="" style="endArrow=classic;html=1;rounded=0;exitX=0.5;exitY=1;exitDx=0;exitDy=0;entryX=0.5;entryY=0;entryDx=0;entryDy=0;" parent="1" source="JxyS_UGYLARrwD6C3Eoa-29" target="JxyS_UGYLARrwD6C3Eoa-38" edge="1">
          <mxGeometry width="50" height="50" relative="1" as="geometry">
            <mxPoint x="890" y="450" as="sourcePoint" />
            <mxPoint x="940" y="400" as="targetPoint" />
          </mxGeometry>
        </mxCell>
        <mxCell id="JxyS_UGYLARrwD6C3Eoa-40" value="&lt;h1&gt;&lt;font style=&quot;font-size: 16px;&quot;&gt;PBS (LXC)&lt;/font&gt;&lt;/h1&gt;&lt;p&gt;- Target Datastore&lt;/p&gt;" style="text;html=1;strokeColor=none;fillColor=none;spacing=5;spacingTop=-20;whiteSpace=wrap;overflow=hidden;rounded=0;" parent="1" vertex="1">
          <mxGeometry x="1070" y="540" width="140" height="74" as="geometry" />
        </mxCell>
        <mxCell id="JxyS_UGYLARrwD6C3Eoa-41" value="" style="shape=flexArrow;endArrow=classic;html=1;rounded=0;exitX=0.465;exitY=1.001;exitDx=0;exitDy=0;entryX=0.5;entryY=1;entryDx=0;entryDy=0;exitPerimeter=0;" parent="1" source="JxyS_UGYLARrwD6C3Eoa-45" target="JxyS_UGYLARrwD6C3Eoa-34" edge="1">
          <mxGeometry width="50" height="50" relative="1" as="geometry">
            <mxPoint x="970" y="591" as="sourcePoint" />
            <mxPoint x="1060" y="597.02" as="targetPoint" />
            <Array as="points">
              <mxPoint x="262" y="790" />
              <mxPoint x="1150" y="790" />
            </Array>
          </mxGeometry>
        </mxCell>
        <mxCell id="JxyS_UGYLARrwD6C3Eoa-44" value="" style="shape=flexArrow;endArrow=classic;html=1;rounded=0;exitX=0;exitY=0.5;exitDx=0;exitDy=0;entryX=1;entryY=0.583;entryDx=0;entryDy=0;entryPerimeter=0;" parent="1" source="JxyS_UGYLARrwD6C3Eoa-38" target="JxyS_UGYLARrwD6C3Eoa-45" edge="1">
          <mxGeometry width="50" height="50" relative="1" as="geometry">
            <mxPoint x="800" y="560" as="sourcePoint" />
            <mxPoint x="850" y="510" as="targetPoint" />
          </mxGeometry>
        </mxCell>
        <mxCell id="JxyS_UGYLARrwD6C3Eoa-45" value="PBS has to be set up on PVE!" style="rounded=0;whiteSpace=wrap;html=1;" parent="1" vertex="1">
          <mxGeometry x="125" y="555" width="295" height="60" as="geometry" />
        </mxCell>
        <mxCell id="JxyS_UGYLARrwD6C3Eoa-46" value="" style="rounded=0;whiteSpace=wrap;html=1;" parent="1" vertex="1">
          <mxGeometry x="760" y="680" width="210" height="60" as="geometry" />
        </mxCell>
        <mxCell id="JxyS_UGYLARrwD6C3Eoa-47" value="" style="endArrow=classic;html=1;rounded=0;exitX=0.5;exitY=1;exitDx=0;exitDy=0;entryX=0.5;entryY=0;entryDx=0;entryDy=0;" parent="1" source="JxyS_UGYLARrwD6C3Eoa-38" target="JxyS_UGYLARrwD6C3Eoa-46" edge="1">
          <mxGeometry width="50" height="50" relative="1" as="geometry">
            <mxPoint x="690" y="560" as="sourcePoint" />
            <mxPoint x="740" y="510" as="targetPoint" />
          </mxGeometry>
        </mxCell>
        <mxCell id="JxyS_UGYLARrwD6C3Eoa-48" value="&lt;h1&gt;&lt;font style=&quot;&quot;&gt;&lt;span style=&quot;font-size: 14px;&quot;&gt;shutdown Target&lt;br&gt;&lt;/span&gt;&lt;/font&gt;&lt;span style=&quot;font-weight: normal;&quot;&gt;&lt;font style=&quot;font-size: 12px;&quot;&gt;Miyagi no be there!&lt;/font&gt;&lt;/span&gt;&lt;/h1&gt;" style="text;html=1;strokeColor=none;fillColor=none;spacing=5;spacingTop=-20;whiteSpace=wrap;overflow=hidden;rounded=0;align=center;" parent="1" vertex="1">
          <mxGeometry x="770" y="674" width="190" height="60" as="geometry" />
        </mxCell>
        <mxCell id="JxyS_UGYLARrwD6C3Eoa-49" value="" style="shape=image;aspect=fixed;image=data:image/png,iVBORw0KGgoAAAANSUhEUgAAAZsAAAB7CAMAAACVdd38AAAAdVBMVEX///8V0aAAzZcAzJUAzpqP5Mm88ODn+vWu7Ni27t0AypEA0J1n3Lmj6tVi27ZS2bD4/v3Q9Onv/PnJ8uUs0aA806Vy3ryd6NDU9et84MHt/PiE4cOu69ji+fLc9++N5MhK1alY2bFf3bpC1qos06V33boAxoeI3uD/AAAM4klEQVR4nO2de5+yKBTHE8hKsshL2b12Lu//JS6gKTcFy8nZHX5/PJ8dFwn5wgEOB51MvLy8vLy8vLy8vLzeJDJ2AbxadLnn6dhl8DKJXAHC8Gs2djm8NC0yEFAhtPOG7XepuMOgEszDsUvj1YjsIQ5qYbg6j10ir0pzBAJJCF69YfsN2txgoAmgxdjl8jpsI6yjoYpul7HL9se1g8hIhg070d4btvEUBgZzJgw70XzsEv5VnddRFxkmmG3GLuVfFDm2DDTKsLP0joJ364RaBxrFsIHp2GX9Wyo+OgcaWSDzjoK36SC5AezC8O7n028RiV3NmUAHHJOxy/0HlH4AOwtdIPOOgh/WedvPnAmC62Ls0v+fRXb9zVkjDPfesP2Uwrx7doZR0I0OoNi7cX5Cl5XFnIG8OK8sc2t48xEFg4tc272aZaeBfDN6Yek6GG69o2BYLdTtM71DVHudiW22gMBQEQWEapicRv4xQp7P/XKzeDURiJvUaWbj+DmMYTuBALzLRM7oWLr8obwXbCAQa9BdyZfNqwlX0gTM7gaN7kNEFMz/PJvYMtAECGn+sotlRhfgaICIgr/O5pzZvJrm7c3Y1nXA69X619ksLCMNzFpW+8ndNkYdX3ykP88m7Ow2ONp13dppDNHL+zqeTUf1RuvOIZ18dXUdz+ahH2CDwMl2d9d02rN5aHg20dLBc0murStRz+ahodmAzLFWLqawT89G1LBscHR0X57EwDgn8GweGpQNyHuFnZm9057NQwOywXDad02/MMwJPJuHhmMDngmaMYTmuLNJDofE1BpkNixVdz7EnoSmSYy/1ZfN7JKml5mc0+G8SYuzXoKh2CD0ZIxzmquHdJzYHBb7e54FWb46hupTNWxIcb1nNNV6H7Z06SQ8rng+6/28bQOJFNPtLcuy/L4/qWla2CTn8/lyqIqzo+L3JfEdAQgAyI/1ApCEywywi9lW7etmNvNdHMe7aYdhUNjg1dM7Y+SKerOZ7enTlB0OAxhcZTo1mzCvUtFExqPahyOq86H/tTL5mUhMc0H4kWYrWwczm4TeEmVVc/iIAPhmA/EJ1UYCwOopN3n0eHwE73IlGtnsaG4ARrdDa+WobMArsTJyVg5s5hDwrkpLyYNIIJIqvmJDVsyvipgCsxvpBIR8WNpI9+WVrnPcpIFS+YxskpxezR89dU3vApTNUvKGwC/2/6aS6xchyZ9iYjPnmTSZm6SyeeFcQNKXzTViE49sGYdpGFOLQB9POjVSsplliKb6XO7i3ZJPObSTJVOezyfPZ77P2ZQerJU0KWvqAK2vpzCMyzRQZGFiQyQ0DzZ3xXZD2laOivMKIzEfA5vSxYyzzuFxRDa7iM3Wm57CoxYjoQCcDaGNHK4fV0PW5KFsB2Iln8sXLQhYSWnOkBnEuL7xsqUX4L5JYGCjoKnYXPlTUuP6MKIBTE4lGgQhrMABsePqbMLyBtA9c3Fio5n4wpRpTzYFq52rdGlPLwktjrHZrFAQCX69WabuPhSRlk/KspZ61w2rjZQ9uNAQdDYqGs4G73nlR/dTugmX5QPjLR9pAJ6mmzT+LOlEwo0am015Y9Qx1jyKaGFzWN/US9PIMC71ZHPHcutiWqIANs9A2QT/gCCSRu2NzM+cz4bxEmqHN2zFtLO2m9d/aWw4mky8h7HhUUYoq0q0KTlwNPUwWNITm4bK5lKhsU277GxOkWIfJmwf2zDa9mNDuw3OtCzYc9V/MTZYsnJMK2rjhI68MeUzmQKxMsgHvUdrTUuad31RZaOjKdmwOrrXl5raExrQnaXDTSKVzaycLJqatywbm9ktohNr9a4YBkBL2o8NbV5AP7dzBEKZGZsAqNOyOQyQcM2cD6G3NsRYO7hraagxbMqosDGgebDBN/1a8C307bQckZoLMhuSlWjsHg8LGx4WYGSjBxL0YsOasmGWQntBs2vE+82HmuQMxAKRPDDlM9kjwZzTXgT1qiBZgGujJrPRxhqmigMUf21ajS7iQE/KZM0FiQ3JSzQOxy462Vxu/Kdb2NApqfTAvdjQGkZatjQPWif17ImxgZqRJVgE1pIPm6RGdXeiwxgyGHdq1OqRS2JTolGJl2ygVKkh0LrShNxYQmEyKbG5IQ1mm7rYTKvlbxsbWoCt8AC92BTAmIBkCNXWh7IxmCLa3IPP+q+NOZ/JDDbWkPYtvftN2IwG1dMpkQ25mdCUbGQM1YwrkrfuV1i+JrK5czSwIwyjUTubonaQtbOhU5TG1vdiQxscMHVrMTjV7IdmVqxhc2rLR+iAhyxAOmP+WzUAkY0ZTclGMfp8pqbWT8mm6agCm2U5iZOn/G1qZSNsNnewYV3n0Xl7sYmBfZ3rwmbXlg8t9qOuWb1vLb8lsGlBU82h5TVJyUbJfNnKppxfg/3ESS1sNqJXuZMNnc5U7bY3G9sk0pWNMZ/Pxh6exUGsRQ2bNbWkH6a1dclGHrf6sZnyGjKOjyYZ2SgRGt1smGOq9JyPxAbNN6mu7Ek2zF2GbyYX5MtsqlrDpk5pkolNqkQ729hUmz5jsQmYb1lT8BQbUnoyNUcD04tsFuHDIfq8TdPDmqxs2EmD2XhsWvQEG7KiBu0Tm1eGr7HB26akhsWWSdr+jbZ/6cSGdp1Tr/2bIdlkLXoU253NEgYYJWxBmel+yNfYlF43XP7buW1TS92TXgGl0ziyYV1HofW2uUCatKhK48pme+RoJhO6dDdM7F5kw2syi0ub6TSJVtmYojTd2Ki3jjxPE+TIhjVqjoY7iqEWcDwAG3BmPgrWkF32l7vPEfRio+i/xyao0LDXLWoUhmADL3QhXFk1S3mY/gKbmSubBxrKAemuhJfZlB728i+XN5uNxWbhEBfowmZu3CKQNcvs673SptULD9a6VafXq2y+q3V96VKL7Cdix2JTAGM0Hflaruq1hQub1JyPpCQPsBrbwbRYbleCr1Paa2D1CeUwqRfZ1G7xWbm/Y7dqY7G5AKOPiyDcuOpd2LA9AlM85my9Wtf96W7cK5p8AVzvsmg+ty1S91NfYyPsB5a1Z/dFj8UmyYwt5wyFbuDCJvk0t8Awws3+zR4YJ0YfQbMBrscLZGocwuv+tIdu5faaJZRjNDZsLmkYxOkEqVmSu7Dh4R8GR/QVCbWTQtPJ4AMUalWPs+HBOuLPD8emDOYw7imJGo0Nqy99gKb1Duo/nNiExlgAwsbb+q+EBU5pRo0u/5uuZYhPuzJXnRIDNQwbPkc3BEEqGo0N2zeH6q4YzVeY7TqxYfkA7SFZhIdgz6+G0Y2OVEI7MMUOfmDp2oBsHkEDvWIH38eGx4cpVc/MiPBMTmx4PipktlEixqclbEosl+dAjb6AzxRzy90DTc4DsuEBdIGpw4sajw2dJrEIp6bpcB+jOHtxY8OjQeFRGFgvK6AGsrD4YyCekUhZlLUwiTDGqrPHbOJih2TDgr0CW7TNiGz4XgnI9ul5Npud0yMLRAdi/TiyIexII0LbxYVmdC7iOw9EV8Z+FnyNwHJxmR0OsyJeA0yXmsLyz3zGgy4Tm7Y9KBsWkRJYIqJHZDMh/FVsCACUIcQqFEPJteLIZkKOj3z4OQ/Mj0XqRUbVb2VlGpCLS0szmwMQomed2XTEcjRKy0MeXXEMY7Khpc4hqt3XCChfcptHwLDHRTIAkXItXcNmbwMDcDfMqi93KQ2ST4KfIYgM1n/BzkNVDD/YSTUliHnDTjhFCtQ7S/jddMrTN0ukLjW37Fb03WHVxmUzIek2r7aU8616XrCY7qa614nEu52+pC6O66zajF4fW5yfxfFW/VZw3yle5oRmaqqmE/21arcgntI0U9kIzdg19cbFTk544Ym0EGV+ddfhcBqZDRU5X4o0Lc4vv29tdik2aXHpjM6nadJw053m12h8Nl5t8mx+rzyb3yvP5vfKhY0+8Z97Nm/Q4ttey9I5MaYwc7hJXZl79RWZRpZXEPN6Fk9BWd/0zYSjpW3ryMuqw9KhqptXdyZ7l+8Xwtx/DGcQbazviA7qt3GfzC+ykwWefWGRl66WVweqNR5u9GBpA0XY46WFXlYdnCwVMARLa4r8RwuHVtH2TtR+gv5jnz8h04sdewr1f52kl5OSo8uw0y4MV0N8WsXLKOs317pkfiWg12Ba2L5s0yaEhvqUl1ebyPSZb3xisPVugDfovOxt2ID/dOS7ZDiP26Wn31vs9YysH2ETzJn/VPGblWxdHAUB+8S3dwO8XYXLjA3o3zD0eofKV2J3mbPI722Opu6PrEYrP28eUed168YbDF54z7fXEArNG2/I7bWGXj8qstPn0zjy8+bfodlSGXbgzUcD/BptPgTDBjLrdz+93qn4MZ9G4OrN2S9T8gX5gbCVdwP8Qm3WUD1Z5vVrNPfRAF5eXl5eXl5eXl5eXl5O+hcQe8Q3Lx7guQAAAABJRU5ErkJggg==;" parent="1" vertex="1">
          <mxGeometry x="1353.17" y="450" width="133.66" height="40" as="geometry" />
        </mxCell>
        <mxCell id="JxyS_UGYLARrwD6C3Eoa-50" value="" style="shape=image;aspect=fixed;image=data:image/png,iVBORw0KGgoAAAANSUhEUgAAAlgAAAB+CAYAAAD4DG/eAAAACXBIWXMAAA7EAAAOxAGVKw4bAAAgAElEQVR4nO2df5RU1ZXvP+dSlp2enp4OIQSrG4LEuFzo8BwXYVzG+BiXz2F8jjFGjTHGRGPwJ1QVSBgejwUsns8gA9UtKopRoxJj1HGMcYzDOI5jjOMQxudz0OExBAhUFUhIp+3p6bRN9T3vj13VdCNN16176hfsz1q1lO6ue0/VPT/22Wfv7wZFURRFURRFURRFURRFURRFURRFURRFURRFURRFURRFURRFURRFURRFURRFURRFURRFURRFURRFURRFURRFURRFURRFURRFURRFURRFURRFURRFURRFURRFURRFURRFURRFURRFURRFURRFURRFURRFURRFURRFURRFURRFURRFURRFURRFURRFURRFOTqm2g0ISAPQCETyL4Ac0A/05V+1RiPS7ijg5X9WaHNv/r+KoiiKohxD1IuBNQk4B/hj4Kz8v5sRg6UT2A28DfwMeBPIVqeZg3jAZKTNXwCm5v/djBhUXcAOYDPwC+A15HMoiqIoiqKUnWbgBuDnwAeAHeX1W+CfgCsRz1E1aALmAf8C/McR2nj46zfAT4HLES+XoiiKoihKWYgAZyPG0mgGypFeB4G/Ac6sYJs94CLgn4GBEtv9Q+AMDh0lKoqiKIqiOONi4F1KM1KGvn4OzKhAez3gMuBXIdt7EDEqK2kYKoqiKIpynDAL2El4A2sAMdTOK2NbI8gx5vuO2vuvSMyWoiiKoiiKU6LAVRQXd1XM6xfAaWVq64XAXkft/GX+enpEqCiKoihKWYgAt+HGyBoA/ha3niEPuAD4Nwfts8CvkaPRCIqiKIqiKGWkCfgLisvGK+b1d8A4R22bjhznuWjX+8D1qHGlKIqiKEqFaAY6kABwF56sBwlvZE1BNLdcGFe/A+ZSPVkJRVEURVGOU5oRw+h3hDdoDgKPAC0ltuVUxBNWqhTD0Nd/ACtKbIeiKIqiKDVKRZXc9yTxjGU8hlM9yySgwRp6seyzlq1tHUdVYG8D7gUucdCUfuAuxLgJUqqmAfhBvg1hj/NywPeAxYyg4p6J4xnDFGuZgscEa4ka6Law2/psm3i3qr8riqIoSi1SdgNrb5JG3zIN+DPEMJmKBIgPzZTz869twIvA0xa27uulZ/r6YZcbCzyNyC6ENXB6gDXAqvz/j8b4/N9eQ/gsvxywAbgVqUcIwLvLoPkDWjzLWQa+bC2zMEzK//rw7yuHlNr5MZYXDeyIddRkLUZFURRFOe4oq4G1N8EZFm60cCnigSqW3cBLxrA6lmLbYb+bBqxD6vyFpQtYBNw/yt9FEONqNuFjpXzgBcS4Sg/9RTrBeQZuRKQagsSJbQGeNx5rY2vYF7J9iqIoiqKExLmBtXk2TGikybNcYg2rEM9PKd4mHymIfCeGp1pTg14mD9G0+ivcaFvtB5LAMxz5uLARCUJfjptagRuBm5HPxu45EPEYh+F6C/MRw6oUD1k/8B6w2PN4+aQ1gY4+FUVRFEVxiHNBy0/9HlFgkTXcC8Qo/SjPA04BOrAsSM8b9Bz5iCExBz7i3SqF8cCdHDm2K4rIJyzEjXH1FhAnb1wBRMbQYg0dVgy48ZT+TKJIiZ2HfJ9vhm2ooiiKoiil41x3ybOA6Fe5kh1oAuYZH29PklUTU3Tnf/4qsAA5LoyFvMckIIUcTW5GjLgIcrS5lNIzDofyDuIp2waw+zYYM4bxVoy7K3H3LJqxNIR4v4d40a4GPo8YfbWCj8TLbQf+L/A6sA+JY/NDXrsRKTD+VWAybgxqV/QhntZ/Bd5A+lAnEodXDiLIuJuCfCf/BRkjlZQSySGfcRtSiWETcqTfe7Q3FUs2iWctjdYw3ljONXC6lTCGQiLJTgybjM/bFrpaO6rjEc5IYlBTvm1nG8MfWssEwDOWLmvYCbzuGbb6Pt0ltDOCbGQvBz7H6HOdjzyXLFI3dXP+/12MwSB4SH+MAWchc9UEijsB6EE2uz8CthJ+HEWQ7+0U4Fzg9HxbKjle+pE54v8BryGfq5NgSVwjsieON8bQ5FsmY5hu4I+AsRgiWLqs5d8xvA5sNx5drWvKNjcdlexcIv4YmjFMxudsA6djGIvYJZ3W8m8Y3jSww7d0T+wobzvLEoOVjjPOGO5EvD+uvGR9wF/mPmT5p9cN+1KuQYwjFwKiW5AYqM1IPcQHkIESlizwJWSRAGBPkhbPshppv6vFvBcJ3F/Z2l5U4P7heMiCmqIyRbLD0gO8giQ+vIAswKXQzKEEhlrXI/ORyfOHwPOI4e6SGLLYfglJJqmVsk37gJcQiZVNUHpCRzpBi7FciOGrSDWGphH+1Ad2Ac8byyMDHlsmpipnRKQTtJhDz+J8GHHjVEgQegr4ER5bW9cU1c4osolMUfomtRt4GemPG/P/LjdNyHP7KjJPN5d4nf1IWMYzlN6fpiKnH1/jUAJXLbALeBL4a8SYLNmQSMeZYAyXAF9G+uFIzoDC3PSIMTyHx47Y6sqNl0yCSRx6FtMZuZ055Dv5gYUX2toPnSi5pmxB7vmH8iPcFlruthAf+D02TDqBnFkGyKQzF5E7KHWgFfCRL34lIuHgIsZrH3LE+BiAvQLSbUQ8y1LgdkaeNEvh+8D81vaS5RsmIANyBrUzURRDF7L4rkCOj4NyO+JJrCcl/RziyVsKPEf4naqHjNXFyC7cZb90yW7EkFhBwMX8/SQM+JxqDUuAi5Cs5GJ5x1jWYngs1l5eb9bOhRD9kGnIs7iIkQ3Aw8kB71nDWmN5uKsF//RlR/37cxDZmcmlt3aQTsTQSsJR5XbCMgGZn2fhxru+G/g64vUJQgRZzJcj2oi15PEukEMMrbXAegIakb9diNfbx3QMy5G5odjNZz/wDpYlwMZYFt88HeTOxZOdDX4jnoGzsazCcGaAdvYZeAfDohN/x6s9Bv/T69y2r2yLaFsH+4DrkIXPlRXbbGB1pJcb9nYPtr0P8drcQYhdbR4PsXyfxo1xdQCJudpQ+MHeVho9y/8A5uFuEesHnvAM8RDGFcix4NnUl3EF4p6/ClHXn0WwyW4q8C3qy7gCae9pwKNIpYMwHtwGpO7njxHPQK0aVyBHlbcDP0Eyiovqq+8ugwE4zxr+AfFUBjGuAKZZw4MWVmcTzsptfYT340RO/JBLkdqpV1K8cQXSJ6YZywNAqvmDUT/jfNwYVyDf55XAPyCGRznmkFnI93It7kIXJiGhJkEYi3i8HwfOoDaNKzh0/Lsa8fxODvLm3g+5HsNPke89iGc/CkxHHCzf2TchUB8OxglEjaylP8FwDsHa2WBhhrX8dV8DfzEmWoaQKdcXHMreXnYg3putDi87FstSLDOH/CwH3Id4cGole64PGYTPMsTAtDI5xHF7FPUKsKQnF9o9/wUXjakiYxEx2lkU37dPpbbizILSANyAeDtKmciiSJ9cSngPcCU5F9mZTyn2DVaOwcIaR9dbWJROuP+ufnUz3gBcaGVBDBOa4AGnmNFjMV1I3RzOqYjB7/raZyHPe5rj60KwtkaRNe0maj+coEAEOWpeRYB4YgOfJtyc0IxhoT+Gm0JcY0Q2z8azJ3AtMvcF3TANpQn4jDF1ZmBNXw/RKO8A30COblx5siZYywOZBLMy8cHP0IN80esd3qdUepAjjHvIn31nEkQzCa5CPG1hOsNQfGCTgW+d0M+Oz64Nfb0gWmW1yhQk8eGsIv++hfqZKEcigmi0LSC49+ky5HjUVZ+sFB5iZK2jiLafvgyMxNosIVycUCMw18DydNzdztxeAWNO5Px89nXRRuORMPC2Ndzq2aMe1TVQvmc+mWBjcDSmIvGwpzi63uGMpbg5oAHxltxCbXt5j0QhaesOijSarMTm3UO4k6EWYEkmwU2ZhLvvLJsgGmvkWuTzhEpCM/CUsSwxxr1Qd9mPgj55F4zJ8ZYRd/Ruh5c+BVhpRJqgQCcygb7o8D5B8ZESOPcwNOPJMgv3C9nbwK0GsuPvc3jV+ieGxEYU462ot+PQkWhEdtVBduMTkO+p3oyrAgUjazZFHNPEUuQs3G/F2x1mMo0As43hpkzcjXGebeVMI56rySEvtQWY05ZiV6zjqH9X7n4/FZnzw3r6GpG4rjNH+8OQFPN9TEcEost35FVeIkgYSFHl5lrb6USS1Z4Ned9mZF2+MuR1DmGYZcWJEfb04Q1gQayDbCzloF2HUZHFZcI9+AOGl40hzgh190pkmjXcm04wdYgnqwsZ2C9SeU9WPxJvdQf5XfKeuXjZOGchO9PJDu+1w8DNFt46qd3hVY8dzkO8M8eKAVUM4ylesy2CaMmVyytQKRqQWM8zivnjtna6PVk0NhAunKARWITh+kw83NFCOs405FitqM9wFHYAcQxvhryOCzxk/M0MeZ2zEaOg2jGSEcRDXO9e/hbkpKcob1Jriv1ItZMXCSdnEQNS2QQXZJOlP8t0Ai8b51wrGfhhnoUPvGFgTqx9eEUVl1Rs8ZmYImd9XkQWgAMOLz3DQAdm2EKxDTGyNo3wnnLxHNIZD0C+uLXHdGt4CLcDc1e+Y2xqa6/6cWit0oSkcddzfFUpzEBSqUfjNMoXjFxpTkVSyIsilqLb91jEyNUbimUssBKPS3clSls0MnFixtBBeEmMLJb5re28EktVR4PoCDQgRkmpRziNyDxeC0f40yluXNUDpyHHhUXR2s5uDElEezIMYy3ci2VmOlFyX59hDWsJvzHcCiRj7bwV8jpHpaKTa2sHOWt5AjkqczUJeMBMC6v23EZzdvbgz7cig7OUtP2g+Ih21gLyKcp7koChzcjO1GVg5n5jWIykRCtHZwYh41nqkGbgTxl9x38W9e+9GsqVBJjPGiIcMLKTfyXkfRuxrDzBMit9a/H33xOHdJIJ+SOYsFI2B4AVxlQ1NGIkzkBqq5bCOYhhU2084IvUhqHnii8RII4slmablaPa7SHve4qFlAenvR8v/k17kpCd62w9TQMLYi3ld8BUfPfa1kFvaztrMNwFJYlhHomIgYu9COtoZIJdNvjzNxDh0HIaWX7+PteRjzGzV4DnM8XzeQS3sgedWBbFUjxRbi2eY4RGjp1dZ7F4iPF0tCy0KPAn1F+g7tGYTIAjtk/eBbF2dnki0fE64cIJpmB4yEQ4b8jcc3QsLcYOituGmR96gCW9A6yv0TmhBRF+DJq92Zx/Xy14oMcjht6x4O0tMJUAm0/zNHx4Ilus4euEEzf2gDMsPJ4zTNtZhCcrfSt4llOsxyOE12jcDdyc+5CX8jqaZaVqHcYYViNxEC49WZcCi/d2DftcbyDHdqWqfI9GlsM8ZdlWxmFYgQTguqIXS4cxPOHwmscDf1TtBlSB0eQIPMLH+9QaJX2mnGGfhflYtoS8/3gMqzJdo2fO7Z1D1POYj2i3hZmD+4D7PZ/vf3ZtTYcKnEfwZzOZ0j1frhmHm4oetcQ4Aqr3f2Yl+AfZbGW9CxtLPQ1YFbVFtOEEGhFx2Zkh79mHYSkeL316XWXGS9UMrN8203mCz3xEzt/VzqvRwi0W/mc6OZjp4SMBerfiXmF4O7LL2pS/D5k4LYhey1W4E6DrB+6MRPjufw64TyU9xjm12g2oAhM4evZWoZD6sUbgzzQxhW9hEx5fhdAlM6YbeDCTGDnjLZOk0fdYiqT7hwnczgFrPFjulSG93DEtyPwbZL25mfA1Zl0xFjel2GqJFkrwDk66h5w1vGzE8xtmPY0AF2B4aO/ckY3XbJxxRtbTSwk3XjqBBfg8Uck6iVXLzMiXcOjNxFkMtGC4CDcGnwckjaU7Hee+Nil+mkNSTZsQIUoXn3s/ErD/RuEH2STN1rIA6QyujNcc8IRnaf/U6po8AtiOxLuVa0fQjKRolxoo24w8C5ft6+NQ8eFyUFBgLtU4bOTox38e4dLns4gcgOuFvQ05uijl6NIDPlHKTSdKFu57mQTzkRiPSaVcJ89ZwMpMkm+3pobL0thlkP2Ab2K4hXDxPL6BZ3xYeVJpNUfD0I2UlZlBsAX6fCS4uphwjcnAxQHb1Qm8iYRkuJYdaSDccfpWpGSNy/nbQ76nUusfRimxD05MQSbJS0i5t9WUPpd4wEzfY3kmweLW9uHJb5kkTdaykPCeXoDVHnz/pAoXba926isDPrs9jzlGOvAFji7bAqzwDJ3pBE+2SWxCH6L0PgEJRg+jZdKVv8bz5I849ySJWst8IIG72BYf2IBhUc6v+ERaLC8gshTl6rgRDj2zb5bwfi9/DZftO4AESLsutFzAQ/rQJYh+TNAMVI+jT0ij/X4kehFX/WPIGHBtVEcRw3IdpekehZvPDC9giSA75jBHQudjSaXjzG/rYBeI0HD2A67ML0phhBFzwDNYFrZ1VKSw8uHchyQpXYl8T8XOdS2I12MRRx+LEYKXwskh4+QJpC7t8gDvLYbCHBKUfcjcWCgm7Xq8NCDHZisIvhkrdQ4AoDVFXzbJY9bSjHzfpa6nUfLzeiZOsrVDtCMzCRqw3IaU8AqznvYBD1vDmpNSlff0Vt3AmiTq47sySeJYHsVd1kiTFSHSnux8no+tJocM7LuB30cGYilHeF1Ih3qKgnE1l6hnuRb4ixKvORIvY1iY1yKpVfqQXW05dwadyMR8PuG8C67wEWOj3Avcw8DJwHeojQDbt4DvUt5nfQAp2/M4FS7d05oiZ5fxTLaLcYgRUaohFAEu9Qy59Dy+3baGbuASLHcSPmj7VQMLYx1ORZuD8Cuk3z+JZJVNLfJ9HlLC6lGOvjGZAvw5webRXYhx1QXl0zQKiI/I9nwP957eAt2I8RZD+mtFk1ZiKfozSdZj+SSynpbqlY0CNxjDr7Jx7vYtOcToWki4z5QDNmBZ2tZenWP0Wpi0ATB2UFYhbLDpUCYAq+wAM3918+DPupBdxaCBFICCgTY4aHbPI+J5XIXsIlwZVz7ihl9Q48ZVJemi8rpm1SYH/D3VL/1U4KdUptbnVsLHQ5WEWQYYHkMy/MIY0J6Fy4zP0kyc85E6cGGFETcBC2LtVTOuhtKDFBAO0jdPZfQ6oTMJlobv59tRruP6UulHxm65F3YfORqthjeT1hQ9xmclcjoUJrbJs7DAGm4yHpcjTowwnl7fwEbjsbi1w6nuZiBqxsCKteO3tvOaMdyM213IFOCBSJSz993+EbX3Zyl+wehDDKs7yMtL7EnieVICJ4XbLJPNFm5ubS/bEVQ94uM+SaEeqKXPXKm29OC24kMgWlP0HjSswdBOOIMyAtyG4SeEr+LwNnBrrIW3Q17HJc8RbEMcQWRzRjpOigJxgm1Ut+XbUWv4ULHN8X4qs/E5IrG76SLHIoKtp0eiBXFUPEA4T28Ow0ZruTm2proOipoxsAaxvIHEt7j8YiZjWOX7nDbkZ4USAMV4RXwk3moF+Q70n98Az3KOsazEbVDlbmNZ2NZeEYFUpfapFe/VccXkdvp8nxRy9BRmZ15yMPEQDgALewfYXAntngDsBl4i2PczBfFiHYmZMGyOHg0fEVyuirdTOYS1dFtZT8MK9zYQfry8Byz0veofF9ecgRVrx+9vYQM4rVvoAedanx+l48Pc9DuQcipvMPJCVpB5uA4JWgSg6+Oci7imi41BKIbtGK778OOhSxIoihKSiR10WdGreriKzdhl4BsRyyufXVvFVhyZfiRWLuhCdisf9VC0IDFdQdakfcBDlP8YThmFtnuhrZ0d3gBf5+jrabnZAnylNcU7E1PV35zWnIEFcPIy/IYBnkFSQHsdXvoMY1iVTg4zsgpCoUdydQ/GQg1tRybOKUg2lUstoW5jWNRvefXkZQ6vqihKybStoTOf+fdqFW7fDywa8Hn5Ux3VXyxG4D2Cfzdn8FER5rNhdJHWw3gdtzG7SkhOWsuBfEmdahxl78jLJG2rwr2PSE0aWACfWEvO97kbyY5wKVFwubGsziQHd1CF4NHr+OhObBMieDf4wDIJTsOwDpkQXHEAmI/huZO1eLMynJodo8cLrR3ss5abgY1UbmfeBSzE46mJd9ek/l0BH9EWDBJkPRYRaC5kiTYCXydY3E1P/r61UthaOcRmY7kRSVapFAcw3GgtG1traA2t6cl74t30GMPdiIve1ZcWAS7HsiidGBzgPpKCnoTBDJ2t+X8PimjuSTIWyQY6H7dCoisMbIhVUGFWqRvCZNIojmjrKEuW80j0Aaus5Xuta2pnsTgK25BYrCBcyCHtplMILiz6Cuq9qkna2vFjHWxGvEmVyHjdDyzG8srEu2trvNS0gQUQS9GNZO5twF2mhAfcYGBBZt4wrZ3nkQD7zYhxtRnylbzjjPckdXu0NOMg9AFrjGF9rEo6HUpNI+Uk6mCcHg/EMmwB5lDeygX9wHrg7raOmhUXPpwe4GmCxcw2Ad9GkgC+RTDNs678/WpNmkEZgjG8hGhZlTPYvAe4w3g8VkueqwJ1MXG3trMfwyLcpuM2Abfjc8ue5KDgaj9iyH2FIdkxZoBGK8Wbr8GdOGs/cL8xrIxVQWFWqXkakZJLXyf4OO1FA3+dY56GvhN53UoCzq4y3KIfeMzC8tbKl8AJg494lN4K+L5ZwNUE915tQebnmltQlUPE2snt7eUpKyr75TCGe4H2rhbuia2pzfmu6kruxdKaIptOsNBImu9ZuDEOG4D5ns++vfPZcNLqwSO6HQCbZ8OERqJGyt9ci1sh0eeBO2Kp6un91CEuVfLDMBbxdJbr2UU5VJevFH21btwmhyh5PrMSf/dtvDImwiLgQdypzfvARgxLW9N1OSd0Aj8gWLmzCYj0TVDNox9C9cQjleKZvh4/E+dJDG2INytMibqh9APfN5A6fVntGtp1Y2ABtGbYlY3xDQyPEzzjZCTGYVhlpdbfM0N/Mf5jRI3llrz3zGUZgpc9w5yTUjpJBCCKu2celibgsmo34ihk0eOTsjHpHnJ74zzrG5rBmQ7eaxa+3ZY6JAVThzyFZFwXK11T2EgEYTtSpkepE1o76EvP4S/NGHwk3McFG8wYFsRW1/ZGsi6OCBUFOIdgJTQK+Bx/mUbboa4X6pqntwHfynfsKi6006t/r2MfootVLo+CjxhXVSkLo5TOvg/px+2cdOA/+2vzWHAodeXBysaYjOFR4EyHlz1gYIHxPhrftf939E9o5D4j8TBLcXdEdYFvuTeT5MbW+vdiTUI0bcplxDQDf4LEv5XiRTzA8RWr0Qf8I7oIlQ17BWT7OBvDWtyVyLrUQjqbYEmsvW6fXSH04Su4naMLbAX+iuNvw1TXpBNEkFg7V94rgJsaPX6dTXBfrL12NyZ1Y2BlksSQsjTTHV62D0gNGDZMXD1s0E4BdkxfD0B/eg7tZgwn4y4OywMuxrI4m2RFncdhXQlcXsbrRwjnad3uqiF1QpbarM12zJBtZRoigjzZ4WU94HoL76eTtLelanfRGIVtSPmaabg9IfERQVMtIVZvWGYaSRJzWa+3GcMCKxvo7zu8rlPq4ogwk2A8ljuRrCpX9AJrDNwzMTVoXEURT8mPkAyXggHaaySoeQPudk9R4CZrWZhNOo3vqjQR5LOU6xW2j/485PvriX4k8LqWCkQfU2QSTAU6gBlluHwTsNBYZmfn1kxCR1BySB907YXrA9ZRxaLGSjAySbx0gnONoQM56XDNeGBlJs7F2URtOotq3sDKJmlGjJtrcJvF9z1g5WHu+EsRN+Z0IJX/L21rIdbOfl+E0zY6agPIkdc8a5mdTdS1kVWrdCHlNI4HCoVvq1k375gmkyCGCA3PpHxzZzOw1HpcnonXrZG1DXjB8TU3osKi9cY0I+uoy3q9hzMeQ8rCBdlkGe9SIjVtYKUTNFnLXOB63CqnP2std7QeMq48xJhazSFL+zSkc5xWuPfEDjqRLJlXcKssv8TCNdl5tWmF1zGvURkl4VpgK5LyXu8xfTVJJs54YDmiQF5uWoA7reGinYkK3K08PII7GZNupKizUgek58DeOJMQT28lMr9PMbDWwml7E7Vl09RUY4bymzlEDMwFFuFOOwPgOSzJtg725//tIXUFH+WjKcMzELf0aYUftLbznhU1500O2zQOWI3l0p011kHqmE7kmR7rBoePxKV8C3iT4yugvyLsSdKIYRWy0avUJmiSgYeicO7OZXU5J7yFu9qNryJ9W6kDjMcU37AOy7lUyMawcAqWRy1M23d7Je5YHDU5cHcuw+sbw+VI7a9Gh5d+z8CC1o5h0v1tiOfqtCP8vQech2jdDLajTYysheQFSR3RbC13Rg0zdy5zeNXjl5dxe5xbq7yKlBxxafAreXbfRoMnXvSrqfx8ORZYHe3iTHtFhe8cni7gJxBakb43f516TgQ6bsjOJoLHHVSnxNdZFlb5BwML15aNmjOwsnG8aBfXIu5FFwJ+ILuoN63hKye1DCtxMQVRHz6bkb8LD7gIcXkPZkF09vEa4jXY5qiNIFb4I9EuZjq85vGGj9SQjBN+cq9V+pHPuAj4U+AN1HPlnHSShrxi+xKql3E9A3g028oZVbp/GJ4F3gl5jW2I9pX27xonE2es/RjrsFxJdapuRIALrMfj6SRtdlkVWnAYNWdg4XEOEmju0gpNA/OjH/KeWTb4s/HAnRSXDeQBlzBEC2va/RCN8hqyyLnMmJmEZEaUMzDwWGYL4vncP9of1iH7kcUmjmgN3YVqApUFewVguQopk+XSi14KZwArs3GnshCVoA/ZmIbhUY7djdIxQzZB1BgWYLiKatsVlpnGsjzb5cxBUzI1Y2BlE3iZBOdZyzog5vDSu4BvRyxvjr9vcBfUghwLXkbxlnYDcAOS0dgE8Mm78D3L88b9gj4dw7pMoiTl8uOVPsST82Ukc7CcO94s8EXgMyW+5lNaMebdSP9bjxxPV3pXX6kJq4EqGjXpONFsK9ca2YCFqTXoAy8iG7OwpYsutIZUJl6WdPdyshHxtpbCFkS4tF5xVadyNJqooqZlNk4DMNfCPMLFS/cDjwF3E66qQRTRrFyeSTiN3w5MzTPzH4UAABOkSURBVBhY1nAaYvS4dIXvN7DQwiuf6hhmXC1GBDKDdsoIEnh/A3lV8ZM6yA0YNljJ4HKl0VKI/VqVz15Sjk4WWQy/ggiLltvwyCFe0R0lvh5GxECDtvMM4Drc1sUMwucrdJ9JwCkVutdHMIYLwIkw4jtYkl0t/C8kIzmMJyYCXIJheWZexRZuF+xD1NeDzo05ZIykR/vDGiUKfI7KrLHTqZwxN4x0gqg1XGPlJCfsseALwBIMyxFDK8x6GkHW6US2ikZW1Q2s3XMgHWcylg7cqrT3YFmM4bm29mFConOBmyi9M7QgO9JBA21iij4rulprKM0zMRIXYFiZSTJhz1yHV3WPX8FXP7JQHUB2uP8b+O/IcVm9TMZdiEEYVNenAem75ztvUXHMRLy+LRxS2Hf5akCO7uNIZm1FSc/DyyQ5GzGGwniKfOTZxls72Hb6MnwD7cA9hNuZe8BV+CzNJmkJcZ1KkkMWzqAJQbuBH1O/wqIRpMLFTA55mMoxXs4EvkEVPL575+QrkkhITxjvtg9sMh5zYi3sjqXptBL3+BzhQiAagAUWbtoTr46Hr+q6S2M8JgFrcbtodCGZfxtiqcEB2oC4DV0ErLYggoM9iAs7N7GdvnSclcbQANyCu5I612AhYphDbcYivEHlgqx94APEkNqOBNBWq6RI2NindxBdpR8QzCM1DpnQ3qF0ja+CsRp0gzUWial5A1HId734fRqpa1nq0XioPmgs07HcC5wa5jqIMTGnd4DXCj+ItdP9fpIVOZ9mDLMpfQ6S+cWS25lg8cntFY/BK+U73oIYWUfK1B6JlxGph6CU4/sojJegTEW8dy8C/4bb8RIBJiIJWKVuBkoeL3uSeL7lQiNrd5hTFh+R4LgxtmZYBYoDe5LEPUsToj1X6nhpBu7wDNnsfJ6Jra6swV41A+vdZfDJThoPwh0YLsSdN83Hst7CfW0dg96kCLLzXoq7zzweMeIOIIKWtHXQlUlyB5a2/P1cfKYIcLVv2Lnrdu46+CF9n13r4Kru+BvguxxfWT453Bh2LwJPAN8kWF+ZCiSRzUIpRrePtL8U13kzUkZqVgnvLSc+JSab7LsdDvYzHstawhcp7jSwONLPa5+9b/gvPpWiN53gDiNHj5dS+vzQYOGWEy2//NVcHp60l5x5OmSri6fUhJ5HkI1nMZ6WfkRYtJQ5pRyb0H5KN45aEImPWqOfEk9b9iTB85mR14YLe4y+G0MS89Eak/Yg++wYFhhDC3BOiHtEgTusT3c6yYttqcqtVVU7Ivx4N2MPeqzOZx24SunsAx6O9rO4rWOYSvvFwL24DZ4HiRP5AZKJ6AG0pjjgWW4lvHtzKFFg4QkH+c7vjampkjr9SIzF8WRcgRgnLpIa+hBv1KsB31eIL7imxPv6HJsK978K+obfzAE/xxTP41GGjOMS2QfMMfDskISaYbS1k8VwKyJhEIYma7gz4nHTvljFNsph+v12ZDNRDM9Selmc/bj3andz7OlwlfSZNs8Gz+cMDI8jMaFhxst2LN9oTbGpdc1Hx8uke6Ctg/es4euEl/uYjOUhz3J+JeUbqmZgWct8ZIFwNTn4RtzQy7siwwybc5F4l3LFLMSQ4PxBWYXOj7MfCfpzKf7YiCFObe2Gujg+Cwvvxp00xw6kfwZdFJqQPnZ49YFi8HGr31YLFBTtA9FzIk1WjNywIQo54E4Lz540yrFda4p91rCY0o7AhjIWWDxQuZi8LKUbGv1ITNVolRW6gL+m9FjWcsxJBzj2ZF86kQ1BIE76GKdgWI1oSIZhP7DEM7wx2h8a2IVhPuHnrPEWVma7nMZ6H5WKG1jpOI2ZBPOwfAd3JXB8Cy97Y7ixH9JDjtDO4bBSN2XAy9/nEfJn4acvg4YBtlnLdcDbuPPwjLVwZzbJ1dlETRSC3Y3UwDve+FvH13sFOW4OuqhMQgKygwaE54B/4NjS0OokoBxANs7YE3KkILQwYg+w3FjWt7UX9wyNLBbfgtEXmFGYYAzrsglmZcsfyPse4RJJXsu/jsabhKv1miW8t+NI13yPY8tTvwPxKhZNJk4Mw4OEV2nvtIa4hadG24wAtKbwDbyC5VuET2Q6E1iXSVakRmJlDaxMnIgxXI3svJ15roA3jCE5YTWdJ7cP/rwg+1AJwc5CsehV5I8hP7EWrMd2JCPKpREy3trBUgTVZhPH5lHT0ehGAnBd4iNZqKUsLLMI7gkuqN3XS9ZlMbxIAAM1k6TJGhZYQgsj+sD9WO6LdRR//9YUxDK8jSFJ+DE0xcrcEzZ+7Gj0I4kNYY7KuoHHObph/wPC1Q/tAn6G22zuHPBT6jej8Uj8HQG88Nkk4zGsQLIiw4yXLmClsTzb1l78XBdL4bd28DoisRTY8zYEWastK9OJ8mvKVczA2pMkYg0XIzt1lynYbxvDHGOHGTGnIsZVMSrtLrkU+XzjASam8I3hdSu14ly6mCdbWJtNMCNdveLQfcADHFu7utHwkfiQXWW49j5EeynoYls4Kgzq9n4bif06Fp7ffmThLopMkiiWWxDJlrDCiE9Zy/LWjuCGh3kauv6ATUZiNneFaAfAGVbEiafuLc+ckAaeInx/eZGR46t2ED42rVxj9CVKjwurNQ4gOlNFkU4y1lqWEj48pd/AqjEe97S2l2asDvg8ibQljBEOcL4Hq7OJ8lZHqMjivO82vDGWC4wcZ7hUg96GYU4sxduxQ9bwWMS4uojKH4FGEW/CYvLCb7EUfls7byCeLJcegykW1hk4a2/C4VWLw0cG6LEy4RTLbuBByiMNUUhXXkXwnfJ4xDgLksTRi9T7rPfg3RyyoBZ1PLgnQQOWa5ExGkY7KAc8j2VBW0fpmWunL4N+w0sWFhB+0TgL6LDuRVpzSJLQLgfX6kf6+OH9rhvZnLoYW7uR0BCXR+B9SLtdlkWrBv3IOlxUX9szlwYj8dKzCSdw3G/gMS/CXRPWlP6MJ91Nv+/xPeRZhNKUs3CZhZXZ+eUTIi27AfLr78BAhLOsGD0uXXK7DCw0dlgg+VhEW+gih/cpheuB2xg+gT+HLIIuB+iZwL0WYvtvcXjV0dmM6J8cC96PYskhBkmpZT+K5cn8K+jicC5wM8GMhneQybaejz62I59h1HH1fhLPSEbxcsKXwNlkLQt6/fCbpsnt5PwBnkNkZMLIDHjATAur986l+d/nhG0ZIJ/1JYrPACyG5xGv6w7kue1GJEeedHiPJ5GkJ5dzVOF7qNfYRR8pXVSU92pPkgbP4yZEXiNMSE8OeArD0gl/Gf67m5jCx+d+4D7CC/deZgdYkknQvCcZtmVHvkHZeHcZ9B9kGlKwc6rD+3VamB9r57nYoSC5JiQbaLbD+5RKEzJhzCXfMVvb6WttZz1ujSwPmGHhoYNRpjiaUEdjB+KNO568V31IeZt7KL8x0okstC8FfF8D0t8uDPAeH5mk7sFtzEql2A7cSBHZRe8ugwHL+UaOtcPItfjAm57hurYOdrnSpJu0lpyVPraEcHULI8BFvsfaj0WchGK8jnjXwsS9HE4PUk/zD4E/Ak5H6s+53HzuBxYicY2u6EbGZr3WR9yM6OcVtSnwLDcgm5EwGfi+gResRzyWcpfd2Xo33Z6U1LmfcEZ0ofzdYs+6TxwrqyHS8gFTsKzCbRZfN3DniScM6+QRxMr+Ju40tcLSgBT1HSY4aizrkYBmlwva+cCKpkjZ61HtQD7Tm2W+Ty2RA76PTKyV2rnuQha1oBlmzcjRVxDxv0LVg6JjMmqE3QTsi1YEC8OWFHnbWOJewAysYmhrp88aHka8/WH7Wgs2dCLRW8iCXK5M4V5kTilXhYptSB9x6XUuGG4vUV8e/MKzLLrfGjkRCjNefOBFa1jQtsZ9KMJJKXqsSNyU4vEfSoQyyTiVzcBKx5mA5RFwqtLeCyyxhrsH7OAX2oBU8V5M+CK4heyqK3AzqYxDjtIGBSEHPLptjsXIDs6VNyQKXO1bOjIJpzFuBQolgb6IHHUeDxS0ouLArbjdwRfDVuBLSI3FILE5ZxFc920/8jlvpvZlN3qQQOn/hvTJosbQ6csAeAb4MpL9GnRC7gQ2+D5/5g2w+VNlUoNuS9HtW75rpb5cKXID+4H7vTF8zfol99lOxKP0RcJrdVWbd4A/R+rEulrktyOF5ZdS+XkhKJ3Ihv6LBNywWctd+QStwPpywD4M3zUeX/PLsBkpYHwO+AN8GzGkSzmuTwMLfJ/5lOF0wri+IEA6zjhjuBOJRXJlXOWA+4xl4WHp0NdQmhbQkdiCLDKbEMPwQcKXAgDRUfkyQ3bbmQTjkEBMVyV1QAzQNcDK1vaSdoW/YHg2mo8Myh8gi1PYINxa5HokgHeocb4fyZh6FMm2q2bMRRS4BPgaIskw2iaiEPS9gOAZiRHEQPtW/p4u+r4rcsizuBcxsErKyt2TxPPgFCzXGbjGji7U2g+8ZSBlLRtbO0Id3xXNLxfiNfRzBpabkTlitHpv/cArBh7A8HIsNer4bwR+y3CPfx8So/NDZCNVj8fGI9GA9OmvcuRx9PsE96RFkHXiK0hh54oXXD4KOWSc/BCJRSvJS7gniTfGMt3KnHAZo6+z/cDzFh7N+WycfHdl4jvfXYb38S4usDJPXsbo2cE9wHMGHv+whZdPXlaeDZNzAyufAr0KuAm3JXDWW8vytkPp0BHclsApGEGbEMMiggzIB3BjvL0DzEFiGvy9c8AfwyTkOMC1kbWwtZ17Snjv00gG0n7EGPx7pN3d1Jc7PAiXId7PfsRj9beIUbmP2llgPGTyPgVZHP4YUVIuHAHlkJ3YZqQ25FZkAin1mTUgff5C4PNI/GQTMp4rEd9YKK7bhzyHzYgO0VbkSDN0X0wniHqG8RbOw/JniLRLE/L5+oEDBjZb+LG1bP2YT9cn1lZ+DGQTNGCYYC2zgD9BnnvjkHbuB/4RMYy22oP0tN1bVDsbgH9GvssdwD/lr7EDmUOOxfFeGEdTEB3BzwOTke/ic5QeMN2IJHCdD/xXDj2jCJUbLzlkvKSR/vAq4jkKMw8AkJ0Pvk+DBxOs5RLkezuVQ/NBv4WsB/9oLRvx2HbQ0js5gM6VCzLzwAzQiMdka7kI+ALyfIfOk7uw/MwYXgR2MYbe2Orytcm5gZVOEjWW5UhMlIuYoH5gvTEsiaWG7R4vQIyrUx3cYzey43/qsJ9HEQ/HCtwYWW8BX2eIyzU9j5jxeQj5PC7EV/dbWNrWzv0lvHcsMkjLIUNQqzQiE6yThbuCNHLIIOihfHEsIP2yOX+/StS985Fx3015P9cgOxNET5Rj1QjQk+2lZ/r62usPOxfQED1Is7F4Zgw9nc30nl767nsc8v3WykaiGjQgffsA7sZ/lEPjpVIGVi8yXiryLLPzabA+zcbHy0XoGfh9ek5eVok7F092NvgNNBpDk/HwrE+3+R29sfWVa4NzA+vdZfAHH9BkLFcisSDjKL2TZTGstVKCouC58pCg+b/CTfB8J2JcbeDIZ7CNiLG4gvAxXiC7xJuRnSLZOFjDJAPzLVxL6cF2OQPbrGHxgOWlSUWW7FAURVEUxT1licEqkEkwHQkQvphgHqBO4FUDq05q4U2zbNjvpiGxS+c4aGIh7bZ9lL+LIBIQtxC+fqKPnI3fypAYGXsFZFu5DAkqPI9g5/m7gBesZXVbR1lUxhVFURRFCUBZDSy7DLJdNGOYgeXLiKE1gSN7tHzkeOtl4FHP8rbx6TxpuM7MWCROaOYI1whCL6L/s4LijiHGIUbWDQ7unUM8Zrcy5Dju/ThezmO8tZxrJBhzJuJqPtL9cogX7HkLPzKGrbE/oPcwY1RRFEVRlCpQVgPrcPbfTuTgQaZiOBVLG4ZGxMDYZwxbTziBLZ+8a8SMrTYk5uoSB03pR7xWSwl2Zh0FHkEyRsIG8OeQ9NnFjJA+/Os5NPR7nAVMMR4TrAihdWNIW58tbR3lS39VFEVRFOXYpxmRTPgdYEO+BpDU1VL1oiYDP8lfJ2xb/gPxoCmKoiiKolSUZkSs8yDhDRoLPE54fZ824O9wY2T9DpHqryUNFUVRFEVRjmGagP+BeHpcGFc/w41mFkiw/T87atf7iBxEJVLgFUVRFEU5jikUYfwAN8eCPwPOdNg+D8lk/D8O2meBXyNJAGpkKYqiKIpSFqLA1bjzXP0rUgKkHJwH7HTUzl8iSt2VEKdTFEVRFOU4YxZujZYLy9hWD7gK2OOgrQOIMTi1jO1VFEVRFKXM1KqnJIKbci2bkKr0Gx1cayR84ElEIHSHg2v14K6Go6IoiqIoyiAR4GykAGkpnqCDSNHbch0LjsSF+TaXml34Q8R7VauGr6IoiqIoxwDNiHL6zyku2P03+b+9nOrJHjQB84B/obgYsl8DPwUuQz1XiqIoinJMUFEl9xBMQjL2PgdMR3SoWhBPTydSi+9tJFNwE5CtSisP4SGCpOcAX0CKUk9BDMZ+DrV5M/AL4DVGUHNXFEVRFKX+qBcDq0AU8RBFOCRnkEOMlt78f2uNRqABaXvh6K/W26woiqIoiqIoiqIoiqIoiqIoiqIoiqIoiqIoiqIoiqIoiqIoiqIoiqIoiqIoiqIoiqIoiqIoiqIoiqIoiqIoiqIoiqIoiqIoiqIoiqIoiqIoiqIoiqIoiqIoiqIoiqIoiqIoiqIoiqIoiqIoiqIoiqIoiqIoiqIoiqIoiqIoiqIoiqIoiqIoiqIoiqIoiqIoiqKUkf8PGchg/tR3CRQAAAAASUVORK5CYII=;" parent="1" vertex="1">
          <mxGeometry x="270" y="90" width="190.47" height="40" as="geometry" />
        </mxCell>
        <mxCell id="JxyS_UGYLARrwD6C3Eoa-51" value="" style="shape=image;aspect=fixed;image=data:image/png,iVBORw0KGgoAAAANSUhEUgAAAlgAAAB+CAYAAAD4DG/eAAAACXBIWXMAAA7EAAAOxAGVKw4bAAAgAElEQVR4nO2df5RU1ZXvP+dSlp2enp4OIQSrG4LEuFzo8BwXYVzG+BiXz2F8jjFGjTHGRGPwJ1QVSBgejwUsns8gA9UtKopRoxJj1HGMcYzDOI5jjOMQxudz0OExBAhUFUhIp+3p6bRN9T3vj13VdCNN16176hfsz1q1lO6ue0/VPT/22Wfv7wZFURRFURRFURRFURRFURRFURRFURRFURRFURRFURRFURRFURRFURRFURRFURRFURRFURRFURRFURRFURRFURRFURRFURRFURRFURRFURRFURRFURRFURRFURRFURRFURRFURRFURRFURRFURRFURRFURRFURRFURRFURRFURRFURRFURRFURRFURRFOTqm2g0ISAPQCETyL4Ac0A/05V+1RiPS7ijg5X9WaHNv/r+KoiiKohxD1IuBNQk4B/hj4Kz8v5sRg6UT2A28DfwMeBPIVqeZg3jAZKTNXwCm5v/djBhUXcAOYDPwC+A15HMoiqIoiqKUnWbgBuDnwAeAHeX1W+CfgCsRz1E1aALmAf8C/McR2nj46zfAT4HLES+XoiiKoihKWYgAZyPG0mgGypFeB4G/Ac6sYJs94CLgn4GBEtv9Q+AMDh0lKoqiKIqiOONi4F1KM1KGvn4OzKhAez3gMuBXIdt7EDEqK2kYKoqiKIpynDAL2El4A2sAMdTOK2NbI8gx5vuO2vuvSMyWoiiKoiiKU6LAVRQXd1XM6xfAaWVq64XAXkft/GX+enpEqCiKoihKWYgAt+HGyBoA/ha3niEPuAD4Nwfts8CvkaPRCIqiKIqiKGWkCfgLisvGK+b1d8A4R22bjhznuWjX+8D1qHGlKIqiKEqFaAY6kABwF56sBwlvZE1BNLdcGFe/A+ZSPVkJRVEURVGOU5oRw+h3hDdoDgKPAC0ltuVUxBNWqhTD0Nd/ACtKbIeiKIqiKDVKRZXc9yTxjGU8hlM9yySgwRp6seyzlq1tHUdVYG8D7gUucdCUfuAuxLgJUqqmAfhBvg1hj/NywPeAxYyg4p6J4xnDFGuZgscEa4ka6Law2/psm3i3qr8riqIoSi1SdgNrb5JG3zIN+DPEMJmKBIgPzZTz869twIvA0xa27uulZ/r6YZcbCzyNyC6ENXB6gDXAqvz/j8b4/N9eQ/gsvxywAbgVqUcIwLvLoPkDWjzLWQa+bC2zMEzK//rw7yuHlNr5MZYXDeyIddRkLUZFURRFOe4oq4G1N8EZFm60cCnigSqW3cBLxrA6lmLbYb+bBqxD6vyFpQtYBNw/yt9FEONqNuFjpXzgBcS4Sg/9RTrBeQZuRKQagsSJbQGeNx5rY2vYF7J9iqIoiqKExLmBtXk2TGikybNcYg2rEM9PKd4mHymIfCeGp1pTg14mD9G0+ivcaFvtB5LAMxz5uLARCUJfjptagRuBm5HPxu45EPEYh+F6C/MRw6oUD1k/8B6w2PN4+aQ1gY4+FUVRFEVxiHNBy0/9HlFgkTXcC8Qo/SjPA04BOrAsSM8b9Bz5iCExBz7i3SqF8cCdHDm2K4rIJyzEjXH1FhAnb1wBRMbQYg0dVgy48ZT+TKJIiZ2HfJ9vhm2ooiiKoiil41x3ybOA6Fe5kh1oAuYZH29PklUTU3Tnf/4qsAA5LoyFvMckIIUcTW5GjLgIcrS5lNIzDofyDuIp2waw+zYYM4bxVoy7K3H3LJqxNIR4v4d40a4GPo8YfbWCj8TLbQf+L/A6sA+JY/NDXrsRKTD+VWAybgxqV/QhntZ/Bd5A+lAnEodXDiLIuJuCfCf/BRkjlZQSySGfcRtSiWETcqTfe7Q3FUs2iWctjdYw3ljONXC6lTCGQiLJTgybjM/bFrpaO6rjEc5IYlBTvm1nG8MfWssEwDOWLmvYCbzuGbb6Pt0ltDOCbGQvBz7H6HOdjzyXLFI3dXP+/12MwSB4SH+MAWchc9UEijsB6EE2uz8CthJ+HEWQ7+0U4Fzg9HxbKjle+pE54v8BryGfq5NgSVwjsieON8bQ5FsmY5hu4I+AsRgiWLqs5d8xvA5sNx5drWvKNjcdlexcIv4YmjFMxudsA6djGIvYJZ3W8m8Y3jSww7d0T+wobzvLEoOVjjPOGO5EvD+uvGR9wF/mPmT5p9cN+1KuQYwjFwKiW5AYqM1IPcQHkIESlizwJWSRAGBPkhbPshppv6vFvBcJ3F/Z2l5U4P7heMiCmqIyRbLD0gO8giQ+vIAswKXQzKEEhlrXI/ORyfOHwPOI4e6SGLLYfglJJqmVsk37gJcQiZVNUHpCRzpBi7FciOGrSDWGphH+1Ad2Ac8byyMDHlsmpipnRKQTtJhDz+J8GHHjVEgQegr4ER5bW9cU1c4osolMUfomtRt4GemPG/P/LjdNyHP7KjJPN5d4nf1IWMYzlN6fpiKnH1/jUAJXLbALeBL4a8SYLNmQSMeZYAyXAF9G+uFIzoDC3PSIMTyHx47Y6sqNl0yCSRx6FtMZuZ055Dv5gYUX2toPnSi5pmxB7vmH8iPcFlruthAf+D02TDqBnFkGyKQzF5E7KHWgFfCRL34lIuHgIsZrH3LE+BiAvQLSbUQ8y1LgdkaeNEvh+8D81vaS5RsmIANyBrUzURRDF7L4rkCOj4NyO+JJrCcl/RziyVsKPEf4naqHjNXFyC7cZb90yW7EkFhBwMX8/SQM+JxqDUuAi5Cs5GJ5x1jWYngs1l5eb9bOhRD9kGnIs7iIkQ3Aw8kB71nDWmN5uKsF//RlR/37cxDZmcmlt3aQTsTQSsJR5XbCMgGZn2fhxru+G/g64vUJQgRZzJcj2oi15PEukEMMrbXAegIakb9diNfbx3QMy5G5odjNZz/wDpYlwMZYFt88HeTOxZOdDX4jnoGzsazCcGaAdvYZeAfDohN/x6s9Bv/T69y2r2yLaFsH+4DrkIXPlRXbbGB1pJcb9nYPtr0P8drcQYhdbR4PsXyfxo1xdQCJudpQ+MHeVho9y/8A5uFuEesHnvAM8RDGFcix4NnUl3EF4p6/ClHXn0WwyW4q8C3qy7gCae9pwKNIpYMwHtwGpO7njxHPQK0aVyBHlbcDP0Eyiovqq+8ugwE4zxr+AfFUBjGuAKZZw4MWVmcTzsptfYT340RO/JBLkdqpV1K8cQXSJ6YZywNAqvmDUT/jfNwYVyDf55XAPyCGRznmkFnI93It7kIXJiGhJkEYi3i8HwfOoDaNKzh0/Lsa8fxODvLm3g+5HsNPke89iGc/CkxHHCzf2TchUB8OxglEjaylP8FwDsHa2WBhhrX8dV8DfzEmWoaQKdcXHMreXnYg3putDi87FstSLDOH/CwH3Id4cGole64PGYTPMsTAtDI5xHF7FPUKsKQnF9o9/wUXjakiYxEx2lkU37dPpbbizILSANyAeDtKmciiSJ9cSngPcCU5F9mZTyn2DVaOwcIaR9dbWJROuP+ufnUz3gBcaGVBDBOa4AGnmNFjMV1I3RzOqYjB7/raZyHPe5rj60KwtkaRNe0maj+coEAEOWpeRYB4YgOfJtyc0IxhoT+Gm0JcY0Q2z8azJ3AtMvcF3TANpQn4jDF1ZmBNXw/RKO8A30COblx5siZYywOZBLMy8cHP0IN80esd3qdUepAjjHvIn31nEkQzCa5CPG1hOsNQfGCTgW+d0M+Oz64Nfb0gWmW1yhQk8eGsIv++hfqZKEcigmi0LSC49+ky5HjUVZ+sFB5iZK2jiLafvgyMxNosIVycUCMw18DydNzdztxeAWNO5Px89nXRRuORMPC2Ndzq2aMe1TVQvmc+mWBjcDSmIvGwpzi63uGMpbg5oAHxltxCbXt5j0QhaesOijSarMTm3UO4k6EWYEkmwU2ZhLvvLJsgGmvkWuTzhEpCM/CUsSwxxr1Qd9mPgj55F4zJ8ZYRd/Ruh5c+BVhpRJqgQCcygb7o8D5B8ZESOPcwNOPJMgv3C9nbwK0GsuPvc3jV+ieGxEYU462ot+PQkWhEdtVBduMTkO+p3oyrAgUjazZFHNPEUuQs3G/F2x1mMo0As43hpkzcjXGebeVMI56rySEvtQWY05ZiV6zjqH9X7n4/FZnzw3r6GpG4rjNH+8OQFPN9TEcEost35FVeIkgYSFHl5lrb6USS1Z4Ned9mZF2+MuR1DmGYZcWJEfb04Q1gQayDbCzloF2HUZHFZcI9+AOGl40hzgh190pkmjXcm04wdYgnqwsZ2C9SeU9WPxJvdQf5XfKeuXjZOGchO9PJDu+1w8DNFt46qd3hVY8dzkO8M8eKAVUM4ylesy2CaMmVyytQKRqQWM8zivnjtna6PVk0NhAunKARWITh+kw83NFCOs405FitqM9wFHYAcQxvhryOCzxk/M0MeZ2zEaOg2jGSEcRDXO9e/hbkpKcob1Jriv1ItZMXCSdnEQNS2QQXZJOlP8t0Ai8b51wrGfhhnoUPvGFgTqx9eEUVl1Rs8ZmYImd9XkQWgAMOLz3DQAdm2EKxDTGyNo3wnnLxHNIZD0C+uLXHdGt4CLcDc1e+Y2xqa6/6cWit0oSkcddzfFUpzEBSqUfjNMoXjFxpTkVSyIsilqLb91jEyNUbimUssBKPS3clSls0MnFixtBBeEmMLJb5re28EktVR4PoCDQgRkmpRziNyDxeC0f40yluXNUDpyHHhUXR2s5uDElEezIMYy3ci2VmOlFyX59hDWsJvzHcCiRj7bwV8jpHpaKTa2sHOWt5AjkqczUJeMBMC6v23EZzdvbgz7cig7OUtP2g+Ih21gLyKcp7koChzcjO1GVg5n5jWIykRCtHZwYh41nqkGbgTxl9x38W9e+9GsqVBJjPGiIcMLKTfyXkfRuxrDzBMit9a/H33xOHdJIJ+SOYsFI2B4AVxlQ1NGIkzkBqq5bCOYhhU2084IvUhqHnii8RII4slmablaPa7SHve4qFlAenvR8v/k17kpCd62w9TQMLYi3ld8BUfPfa1kFvaztrMNwFJYlhHomIgYu9COtoZIJdNvjzNxDh0HIaWX7+PteRjzGzV4DnM8XzeQS3sgedWBbFUjxRbi2eY4RGjp1dZ7F4iPF0tCy0KPAn1F+g7tGYTIAjtk/eBbF2dnki0fE64cIJpmB4yEQ4b8jcc3QsLcYOituGmR96gCW9A6yv0TmhBRF+DJq92Zx/Xy14oMcjht6x4O0tMJUAm0/zNHx4Ilus4euEEzf2gDMsPJ4zTNtZhCcrfSt4llOsxyOE12jcDdyc+5CX8jqaZaVqHcYYViNxEC49WZcCi/d2DftcbyDHdqWqfI9GlsM8ZdlWxmFYgQTguqIXS4cxPOHwmscDf1TtBlSB0eQIPMLH+9QaJX2mnGGfhflYtoS8/3gMqzJdo2fO7Z1D1POYj2i3hZmD+4D7PZ/vf3ZtTYcKnEfwZzOZ0j1frhmHm4oetcQ4Aqr3f2Yl+AfZbGW9CxtLPQ1YFbVFtOEEGhFx2Zkh79mHYSkeL316XWXGS9UMrN8203mCz3xEzt/VzqvRwi0W/mc6OZjp4SMBerfiXmF4O7LL2pS/D5k4LYhey1W4E6DrB+6MRPjufw64TyU9xjm12g2oAhM4evZWoZD6sUbgzzQxhW9hEx5fhdAlM6YbeDCTGDnjLZOk0fdYiqT7hwnczgFrPFjulSG93DEtyPwbZL25mfA1Zl0xFjel2GqJFkrwDk66h5w1vGzE8xtmPY0AF2B4aO/ckY3XbJxxRtbTSwk3XjqBBfg8Uck6iVXLzMiXcOjNxFkMtGC4CDcGnwckjaU7Hee+Nil+mkNSTZsQIUoXn3s/ErD/RuEH2STN1rIA6QyujNcc8IRnaf/U6po8AtiOxLuVa0fQjKRolxoo24w8C5ft6+NQ8eFyUFBgLtU4bOTox38e4dLns4gcgOuFvQ05uijl6NIDPlHKTSdKFu57mQTzkRiPSaVcJ89ZwMpMkm+3pobL0thlkP2Ab2K4hXDxPL6BZ3xYeVJpNUfD0I2UlZlBsAX6fCS4uphwjcnAxQHb1Qm8iYRkuJYdaSDccfpWpGSNy/nbQ76nUusfRimxD05MQSbJS0i5t9WUPpd4wEzfY3kmweLW9uHJb5kkTdaykPCeXoDVHnz/pAoXba926isDPrs9jzlGOvAFji7bAqzwDJ3pBE+2SWxCH6L0PgEJRg+jZdKVv8bz5I849ySJWst8IIG72BYf2IBhUc6v+ERaLC8gshTl6rgRDj2zb5bwfi9/DZftO4AESLsutFzAQ/rQJYh+TNAMVI+jT0ij/X4kehFX/WPIGHBtVEcRw3IdpekehZvPDC9giSA75jBHQudjSaXjzG/rYBeI0HD2A67ML0phhBFzwDNYFrZ1VKSw8uHchyQpXYl8T8XOdS2I12MRRx+LEYKXwskh4+QJpC7t8gDvLYbCHBKUfcjcWCgm7Xq8NCDHZisIvhkrdQ4AoDVFXzbJY9bSjHzfpa6nUfLzeiZOsrVDtCMzCRqw3IaU8AqznvYBD1vDmpNSlff0Vt3AmiTq47sySeJYHsVd1kiTFSHSnux8no+tJocM7LuB30cGYilHeF1Ih3qKgnE1l6hnuRb4ixKvORIvY1iY1yKpVfqQXW05dwadyMR8PuG8C67wEWOj3Avcw8DJwHeojQDbt4DvUt5nfQAp2/M4FS7d05oiZ5fxTLaLcYgRUaohFAEu9Qy59Dy+3baGbuASLHcSPmj7VQMLYx1ORZuD8Cuk3z+JZJVNLfJ9HlLC6lGOvjGZAvw5webRXYhx1QXl0zQKiI/I9nwP957eAt2I8RZD+mtFk1ZiKfozSdZj+SSynpbqlY0CNxjDr7Jx7vYtOcToWki4z5QDNmBZ2tZenWP0Wpi0ATB2UFYhbLDpUCYAq+wAM3918+DPupBdxaCBFICCgTY4aHbPI+J5XIXsIlwZVz7ihl9Q48ZVJemi8rpm1SYH/D3VL/1U4KdUptbnVsLHQ5WEWQYYHkMy/MIY0J6Fy4zP0kyc85E6cGGFETcBC2LtVTOuhtKDFBAO0jdPZfQ6oTMJlobv59tRruP6UulHxm65F3YfORqthjeT1hQ9xmclcjoUJrbJs7DAGm4yHpcjTowwnl7fwEbjsbi1w6nuZiBqxsCKteO3tvOaMdyM213IFOCBSJSz993+EbX3Zyl+wehDDKs7yMtL7EnieVICJ4XbLJPNFm5ubS/bEVQ94uM+SaEeqKXPXKm29OC24kMgWlP0HjSswdBOOIMyAtyG4SeEr+LwNnBrrIW3Q17HJc8RbEMcQWRzRjpOigJxgm1Ut+XbUWv4ULHN8X4qs/E5IrG76SLHIoKtp0eiBXFUPEA4T28Ow0ZruTm2proOipoxsAaxvIHEt7j8YiZjWOX7nDbkZ4USAMV4RXwk3moF+Q70n98Az3KOsazEbVDlbmNZ2NZeEYFUpfapFe/VccXkdvp8nxRy9BRmZ15yMPEQDgALewfYXAntngDsBl4i2PczBfFiHYmZMGyOHg0fEVyuirdTOYS1dFtZT8MK9zYQfry8Byz0veofF9ecgRVrx+9vYQM4rVvoAedanx+l48Pc9DuQcipvMPJCVpB5uA4JWgSg6+Oci7imi41BKIbtGK778OOhSxIoihKSiR10WdGreriKzdhl4BsRyyufXVvFVhyZfiRWLuhCdisf9VC0IDFdQdakfcBDlP8YThmFtnuhrZ0d3gBf5+jrabnZAnylNcU7E1PV35zWnIEFcPIy/IYBnkFSQHsdXvoMY1iVTg4zsgpCoUdydQ/GQg1tRybOKUg2lUstoW5jWNRvefXkZQ6vqihKybStoTOf+fdqFW7fDywa8Hn5Ux3VXyxG4D2Cfzdn8FER5rNhdJHWw3gdtzG7SkhOWsuBfEmdahxl78jLJG2rwr2PSE0aWACfWEvO97kbyY5wKVFwubGsziQHd1CF4NHr+OhObBMieDf4wDIJTsOwDpkQXHEAmI/huZO1eLMynJodo8cLrR3ss5abgY1UbmfeBSzE46mJd9ek/l0BH9EWDBJkPRYRaC5kiTYCXydY3E1P/r61UthaOcRmY7kRSVapFAcw3GgtG1traA2t6cl74t30GMPdiIve1ZcWAS7HsiidGBzgPpKCnoTBDJ2t+X8PimjuSTIWyQY6H7dCoisMbIhVUGFWqRvCZNIojmjrKEuW80j0Aaus5Xuta2pnsTgK25BYrCBcyCHtplMILiz6Cuq9qkna2vFjHWxGvEmVyHjdDyzG8srEu2trvNS0gQUQS9GNZO5twF2mhAfcYGBBZt4wrZ3nkQD7zYhxtRnylbzjjPckdXu0NOMg9AFrjGF9rEo6HUpNI+Uk6mCcHg/EMmwB5lDeygX9wHrg7raOmhUXPpwe4GmCxcw2Ad9GkgC+RTDNs678/WpNmkEZgjG8hGhZlTPYvAe4w3g8VkueqwJ1MXG3trMfwyLcpuM2Abfjc8ue5KDgaj9iyH2FIdkxZoBGK8Wbr8GdOGs/cL8xrIxVQWFWqXkakZJLXyf4OO1FA3+dY56GvhN53UoCzq4y3KIfeMzC8tbKl8AJg494lN4K+L5ZwNUE915tQebnmltQlUPE2snt7eUpKyr75TCGe4H2rhbuia2pzfmu6kruxdKaIptOsNBImu9ZuDEOG4D5ns++vfPZcNLqwSO6HQCbZ8OERqJGyt9ci1sh0eeBO2Kp6un91CEuVfLDMBbxdJbr2UU5VJevFH21btwmhyh5PrMSf/dtvDImwiLgQdypzfvARgxLW9N1OSd0Aj8gWLmzCYj0TVDNox9C9cQjleKZvh4/E+dJDG2INytMibqh9APfN5A6fVntGtp1Y2ABtGbYlY3xDQyPEzzjZCTGYVhlpdbfM0N/Mf5jRI3llrz3zGUZgpc9w5yTUjpJBCCKu2celibgsmo34ihk0eOTsjHpHnJ74zzrG5rBmQ7eaxa+3ZY6JAVThzyFZFwXK11T2EgEYTtSpkepE1o76EvP4S/NGHwk3McFG8wYFsRW1/ZGsi6OCBUFOIdgJTQK+Bx/mUbboa4X6pqntwHfynfsKi6006t/r2MfootVLo+CjxhXVSkLo5TOvg/px+2cdOA/+2vzWHAodeXBysaYjOFR4EyHlz1gYIHxPhrftf939E9o5D4j8TBLcXdEdYFvuTeT5MbW+vdiTUI0bcplxDQDf4LEv5XiRTzA8RWr0Qf8I7oIlQ17BWT7OBvDWtyVyLrUQjqbYEmsvW6fXSH04Su4naMLbAX+iuNvw1TXpBNEkFg7V94rgJsaPX6dTXBfrL12NyZ1Y2BlksSQsjTTHV62D0gNGDZMXD1s0E4BdkxfD0B/eg7tZgwn4y4OywMuxrI4m2RFncdhXQlcXsbrRwjnad3uqiF1QpbarM12zJBtZRoigjzZ4WU94HoL76eTtLelanfRGIVtSPmaabg9IfERQVMtIVZvWGYaSRJzWa+3GcMCKxvo7zu8rlPq4ogwk2A8ljuRrCpX9AJrDNwzMTVoXEURT8mPkAyXggHaaySoeQPudk9R4CZrWZhNOo3vqjQR5LOU6xW2j/485PvriX4k8LqWCkQfU2QSTAU6gBlluHwTsNBYZmfn1kxCR1BySB907YXrA9ZRxaLGSjAySbx0gnONoQM56XDNeGBlJs7F2URtOotq3sDKJmlGjJtrcJvF9z1g5WHu+EsRN+Z0IJX/L21rIdbOfl+E0zY6agPIkdc8a5mdTdS1kVWrdCHlNI4HCoVvq1k375gmkyCGCA3PpHxzZzOw1HpcnonXrZG1DXjB8TU3osKi9cY0I+uoy3q9hzMeQ8rCBdlkGe9SIjVtYKUTNFnLXOB63CqnP2std7QeMq48xJhazSFL+zSkc5xWuPfEDjqRLJlXcKssv8TCNdl5tWmF1zGvURkl4VpgK5LyXu8xfTVJJs54YDmiQF5uWoA7reGinYkK3K08PII7GZNupKizUgek58DeOJMQT28lMr9PMbDWwml7E7Vl09RUY4bymzlEDMwFFuFOOwPgOSzJtg725//tIXUFH+WjKcMzELf0aYUftLbznhU1500O2zQOWI3l0p011kHqmE7kmR7rBoePxKV8C3iT4yugvyLsSdKIYRWy0avUJmiSgYeicO7OZXU5J7yFu9qNryJ9W6kDjMcU37AOy7lUyMawcAqWRy1M23d7Je5YHDU5cHcuw+sbw+VI7a9Gh5d+z8CC1o5h0v1tiOfqtCP8vQech2jdDLajTYysheQFSR3RbC13Rg0zdy5zeNXjl5dxe5xbq7yKlBxxafAreXbfRoMnXvSrqfx8ORZYHe3iTHtFhe8cni7gJxBakb43f516TgQ6bsjOJoLHHVSnxNdZFlb5BwML15aNmjOwsnG8aBfXIu5FFwJ+ILuoN63hKye1DCtxMQVRHz6bkb8LD7gIcXkPZkF09vEa4jXY5qiNIFb4I9EuZjq85vGGj9SQjBN+cq9V+pHPuAj4U+AN1HPlnHSShrxi+xKql3E9A3g028oZVbp/GJ4F3gl5jW2I9pX27xonE2es/RjrsFxJdapuRIALrMfj6SRtdlkVWnAYNWdg4XEOEmju0gpNA/OjH/KeWTb4s/HAnRSXDeQBlzBEC2va/RCN8hqyyLnMmJmEZEaUMzDwWGYL4vncP9of1iH7kcUmjmgN3YVqApUFewVguQopk+XSi14KZwArs3GnshCVoA/ZmIbhUY7djdIxQzZB1BgWYLiKatsVlpnGsjzb5cxBUzI1Y2BlE3iZBOdZyzog5vDSu4BvRyxvjr9vcBfUghwLXkbxlnYDcAOS0dgE8Mm78D3L88b9gj4dw7pMoiTl8uOVPsST82Ukc7CcO94s8EXgMyW+5lNaMebdSP9bjxxPV3pXX6kJq4EqGjXpONFsK9ca2YCFqTXoAy8iG7OwpYsutIZUJl6WdPdyshHxtpbCFkS4tF5xVadyNJqooqZlNk4DMNfCPMLFS/cDjwF3E66qQRTRrFyeSTiN3w5MzTPzH4UAABOkSURBVBhY1nAaYvS4dIXvN7DQwiuf6hhmXC1GBDKDdsoIEnh/A3lV8ZM6yA0YNljJ4HKl0VKI/VqVz15Sjk4WWQy/ggiLltvwyCFe0R0lvh5GxECDtvMM4Drc1sUMwucrdJ9JwCkVutdHMIYLwIkw4jtYkl0t/C8kIzmMJyYCXIJheWZexRZuF+xD1NeDzo05ZIykR/vDGiUKfI7KrLHTqZwxN4x0gqg1XGPlJCfsseALwBIMyxFDK8x6GkHW6US2ikZW1Q2s3XMgHWcylg7cqrT3YFmM4bm29mFConOBmyi9M7QgO9JBA21iij4rulprKM0zMRIXYFiZSTJhz1yHV3WPX8FXP7JQHUB2uP8b+O/IcVm9TMZdiEEYVNenAem75ztvUXHMRLy+LRxS2Hf5akCO7uNIZm1FSc/DyyQ5GzGGwniKfOTZxls72Hb6MnwD7cA9hNuZe8BV+CzNJmkJcZ1KkkMWzqAJQbuBH1O/wqIRpMLFTA55mMoxXs4EvkEVPL575+QrkkhITxjvtg9sMh5zYi3sjqXptBL3+BzhQiAagAUWbtoTr46Hr+q6S2M8JgFrcbtodCGZfxtiqcEB2oC4DV0ErLYggoM9iAs7N7GdvnSclcbQANyCu5I612AhYphDbcYivEHlgqx94APEkNqOBNBWq6RI2NindxBdpR8QzCM1DpnQ3qF0ja+CsRp0gzUWial5A1HId734fRqpa1nq0XioPmgs07HcC5wa5jqIMTGnd4DXCj+ItdP9fpIVOZ9mDLMpfQ6S+cWS25lg8cntFY/BK+U73oIYWUfK1B6JlxGph6CU4/sojJegTEW8dy8C/4bb8RIBJiIJWKVuBkoeL3uSeL7lQiNrd5hTFh+R4LgxtmZYBYoDe5LEPUsToj1X6nhpBu7wDNnsfJ6Jra6swV41A+vdZfDJThoPwh0YLsSdN83Hst7CfW0dg96kCLLzXoq7zzweMeIOIIKWtHXQlUlyB5a2/P1cfKYIcLVv2Lnrdu46+CF9n13r4Kru+BvguxxfWT453Bh2LwJPAN8kWF+ZCiSRzUIpRrePtL8U13kzUkZqVgnvLSc+JSab7LsdDvYzHstawhcp7jSwONLPa5+9b/gvPpWiN53gDiNHj5dS+vzQYOGWEy2//NVcHp60l5x5OmSri6fUhJ5HkI1nMZ6WfkRYtJQ5pRyb0H5KN45aEImPWqOfEk9b9iTB85mR14YLe4y+G0MS89Eak/Yg++wYFhhDC3BOiHtEgTusT3c6yYttqcqtVVU7Ivx4N2MPeqzOZx24SunsAx6O9rO4rWOYSvvFwL24DZ4HiRP5AZKJ6AG0pjjgWW4lvHtzKFFg4QkH+c7vjampkjr9SIzF8WRcgRgnLpIa+hBv1KsB31eIL7imxPv6HJsK978K+obfzAE/xxTP41GGjOMS2QfMMfDskISaYbS1k8VwKyJhEIYma7gz4nHTvljFNsph+v12ZDNRDM9Selmc/bj3andz7OlwlfSZNs8Gz+cMDI8jMaFhxst2LN9oTbGpdc1Hx8uke6Ctg/es4euEl/uYjOUhz3J+JeUbqmZgWct8ZIFwNTn4RtzQy7siwwybc5F4l3LFLMSQ4PxBWYXOj7MfCfpzKf7YiCFObe2Gujg+Cwvvxp00xw6kfwZdFJqQPnZ49YFi8HGr31YLFBTtA9FzIk1WjNywIQo54E4Lz540yrFda4p91rCY0o7AhjIWWDxQuZi8LKUbGv1ITNVolRW6gL+m9FjWcsxJBzj2ZF86kQ1BIE76GKdgWI1oSIZhP7DEM7wx2h8a2IVhPuHnrPEWVma7nMZ6H5WKG1jpOI2ZBPOwfAd3JXB8Cy97Y7ixH9JDjtDO4bBSN2XAy9/nEfJn4acvg4YBtlnLdcDbuPPwjLVwZzbJ1dlETRSC3Y3UwDve+FvH13sFOW4OuqhMQgKygwaE54B/4NjS0OokoBxANs7YE3KkILQwYg+w3FjWt7UX9wyNLBbfgtEXmFGYYAzrsglmZcsfyPse4RJJXsu/jsabhKv1miW8t+NI13yPY8tTvwPxKhZNJk4Mw4OEV2nvtIa4hadG24wAtKbwDbyC5VuET2Q6E1iXSVakRmJlDaxMnIgxXI3svJ15roA3jCE5YTWdJ7cP/rwg+1AJwc5CsehV5I8hP7EWrMd2JCPKpREy3trBUgTVZhPH5lHT0ehGAnBd4iNZqKUsLLMI7gkuqN3XS9ZlMbxIAAM1k6TJGhZYQgsj+sD9WO6LdRR//9YUxDK8jSFJ+DE0xcrcEzZ+7Gj0I4kNYY7KuoHHObph/wPC1Q/tAn6G22zuHPBT6jej8Uj8HQG88Nkk4zGsQLIiw4yXLmClsTzb1l78XBdL4bd28DoisRTY8zYEWastK9OJ8mvKVczA2pMkYg0XIzt1lynYbxvDHGOHGTGnIsZVMSrtLrkU+XzjASam8I3hdSu14ly6mCdbWJtNMCNdveLQfcADHFu7utHwkfiQXWW49j5EeynoYls4Kgzq9n4bif06Fp7ffmThLopMkiiWWxDJlrDCiE9Zy/LWjuCGh3kauv6ATUZiNneFaAfAGVbEiafuLc+ckAaeInx/eZGR46t2ED42rVxj9CVKjwurNQ4gOlNFkU4y1lqWEj48pd/AqjEe97S2l2asDvg8ibQljBEOcL4Hq7OJ8lZHqMjivO82vDGWC4wcZ7hUg96GYU4sxduxQ9bwWMS4uojKH4FGEW/CYvLCb7EUfls7byCeLJcegykW1hk4a2/C4VWLw0cG6LEy4RTLbuBByiMNUUhXXkXwnfJ4xDgLksTRi9T7rPfg3RyyoBZ1PLgnQQOWa5ExGkY7KAc8j2VBW0fpmWunL4N+w0sWFhB+0TgL6LDuRVpzSJLQLgfX6kf6+OH9rhvZnLoYW7uR0BCXR+B9SLtdlkWrBv3IOlxUX9szlwYj8dKzCSdw3G/gMS/CXRPWlP6MJ91Nv+/xPeRZhNKUs3CZhZXZ+eUTIi27AfLr78BAhLOsGD0uXXK7DCw0dlgg+VhEW+gih/cpheuB2xg+gT+HLIIuB+iZwL0WYvtvcXjV0dmM6J8cC96PYskhBkmpZT+K5cn8K+jicC5wM8GMhneQybaejz62I59h1HH1fhLPSEbxcsKXwNlkLQt6/fCbpsnt5PwBnkNkZMLIDHjATAur986l+d/nhG0ZIJ/1JYrPACyG5xGv6w7kue1GJEeedHiPJ5GkJ5dzVOF7qNfYRR8pXVSU92pPkgbP4yZEXiNMSE8OeArD0gl/Gf67m5jCx+d+4D7CC/deZgdYkknQvCcZtmVHvkHZeHcZ9B9kGlKwc6rD+3VamB9r57nYoSC5JiQbaLbD+5RKEzJhzCXfMVvb6WttZz1ujSwPmGHhoYNRpjiaUEdjB+KNO568V31IeZt7KL8x0okstC8FfF8D0t8uDPAeH5mk7sFtzEql2A7cSBHZRe8ugwHL+UaOtcPItfjAm57hurYOdrnSpJu0lpyVPraEcHULI8BFvsfaj0WchGK8jnjXwsS9HE4PUk/zD4E/Ak5H6s+53HzuBxYicY2u6EbGZr3WR9yM6OcVtSnwLDcgm5EwGfi+gResRzyWcpfd2Xo33Z6U1LmfcEZ0ofzdYs+6TxwrqyHS8gFTsKzCbRZfN3DniScM6+QRxMr+Ju40tcLSgBT1HSY4aizrkYBmlwva+cCKpkjZ61HtQD7Tm2W+Ty2RA76PTKyV2rnuQha1oBlmzcjRVxDxv0LVg6JjMmqE3QTsi1YEC8OWFHnbWOJewAysYmhrp88aHka8/WH7Wgs2dCLRW8iCXK5M4V5kTilXhYptSB9x6XUuGG4vUV8e/MKzLLrfGjkRCjNefOBFa1jQtsZ9KMJJKXqsSNyU4vEfSoQyyTiVzcBKx5mA5RFwqtLeCyyxhrsH7OAX2oBU8V5M+CK4heyqK3AzqYxDjtIGBSEHPLptjsXIDs6VNyQKXO1bOjIJpzFuBQolgb6IHHUeDxS0ouLArbjdwRfDVuBLSI3FILE5ZxFc920/8jlvpvZlN3qQQOn/hvTJosbQ6csAeAb4MpL9GnRC7gQ2+D5/5g2w+VNlUoNuS9HtW75rpb5cKXID+4H7vTF8zfol99lOxKP0RcJrdVWbd4A/R+rEulrktyOF5ZdS+XkhKJ3Ihv6LBNywWctd+QStwPpywD4M3zUeX/PLsBkpYHwO+AN8GzGkSzmuTwMLfJ/5lOF0wri+IEA6zjhjuBOJRXJlXOWA+4xl4WHp0NdQmhbQkdiCLDKbEMPwQcKXAgDRUfkyQ3bbmQTjkEBMVyV1QAzQNcDK1vaSdoW/YHg2mo8Myh8gi1PYINxa5HokgHeocb4fyZh6FMm2q2bMRRS4BPgaIskw2iaiEPS9gOAZiRHEQPtW/p4u+r4rcsizuBcxsErKyt2TxPPgFCzXGbjGji7U2g+8ZSBlLRtbO0Id3xXNLxfiNfRzBpabkTlitHpv/cArBh7A8HIsNer4bwR+y3CPfx8So/NDZCNVj8fGI9GA9OmvcuRx9PsE96RFkHXiK0hh54oXXD4KOWSc/BCJRSvJS7gniTfGMt3KnHAZo6+z/cDzFh7N+WycfHdl4jvfXYb38S4usDJPXsbo2cE9wHMGHv+whZdPXlaeDZNzAyufAr0KuAm3JXDWW8vytkPp0BHclsApGEGbEMMiggzIB3BjvL0DzEFiGvy9c8AfwyTkOMC1kbWwtZ17Snjv00gG0n7EGPx7pN3d1Jc7PAiXId7PfsRj9beIUbmP2llgPGTyPgVZHP4YUVIuHAHlkJ3YZqQ25FZkAin1mTUgff5C4PNI/GQTMp4rEd9YKK7bhzyHzYgO0VbkSDN0X0wniHqG8RbOw/JniLRLE/L5+oEDBjZb+LG1bP2YT9cn1lZ+DGQTNGCYYC2zgD9BnnvjkHbuB/4RMYy22oP0tN1bVDsbgH9GvssdwD/lr7EDmUOOxfFeGEdTEB3BzwOTke/ic5QeMN2IJHCdD/xXDj2jCJUbLzlkvKSR/vAq4jkKMw8AkJ0Pvk+DBxOs5RLkezuVQ/NBv4WsB/9oLRvx2HbQ0js5gM6VCzLzwAzQiMdka7kI+ALyfIfOk7uw/MwYXgR2MYbe2Orytcm5gZVOEjWW5UhMlIuYoH5gvTEsiaWG7R4vQIyrUx3cYzey43/qsJ9HEQ/HCtwYWW8BX2eIyzU9j5jxeQj5PC7EV/dbWNrWzv0lvHcsMkjLIUNQqzQiE6yThbuCNHLIIOihfHEsIP2yOX+/StS985Fx3015P9cgOxNET5Rj1QjQk+2lZ/r62usPOxfQED1Is7F4Zgw9nc30nl767nsc8v3WykaiGjQgffsA7sZ/lEPjpVIGVi8yXiryLLPzabA+zcbHy0XoGfh9ek5eVok7F092NvgNNBpDk/HwrE+3+R29sfWVa4NzA+vdZfAHH9BkLFcisSDjKL2TZTGstVKCouC58pCg+b/CTfB8J2JcbeDIZ7CNiLG4gvAxXiC7xJuRnSLZOFjDJAPzLVxL6cF2OQPbrGHxgOWlSUWW7FAURVEUxT1licEqkEkwHQkQvphgHqBO4FUDq05q4U2zbNjvpiGxS+c4aGIh7bZ9lL+LIBIQtxC+fqKPnI3fypAYGXsFZFu5DAkqPI9g5/m7gBesZXVbR1lUxhVFURRFCUBZDSy7DLJdNGOYgeXLiKE1gSN7tHzkeOtl4FHP8rbx6TxpuM7MWCROaOYI1whCL6L/s4LijiHGIUbWDQ7unUM8Zrcy5Dju/ThezmO8tZxrJBhzJuJqPtL9cogX7HkLPzKGrbE/oPcwY1RRFEVRlCpQVgPrcPbfTuTgQaZiOBVLG4ZGxMDYZwxbTziBLZ+8a8SMrTYk5uoSB03pR7xWSwl2Zh0FHkEyRsIG8OeQ9NnFjJA+/Os5NPR7nAVMMR4TrAihdWNIW58tbR3lS39VFEVRFOXYpxmRTPgdYEO+BpDU1VL1oiYDP8lfJ2xb/gPxoCmKoiiKolSUZkSs8yDhDRoLPE54fZ824O9wY2T9DpHqryUNFUVRFEVRjmGagP+BeHpcGFc/w41mFkiw/T87atf7iBxEJVLgFUVRFEU5jikUYfwAN8eCPwPOdNg+D8lk/D8O2meBXyNJAGpkKYqiKIpSFqLA1bjzXP0rUgKkHJwH7HTUzl8iSt2VEKdTFEVRFOU4YxZujZYLy9hWD7gK2OOgrQOIMTi1jO1VFEVRFKXM1KqnJIKbci2bkKr0Gx1cayR84ElEIHSHg2v14K6Go6IoiqIoyiAR4GykAGkpnqCDSNHbch0LjsSF+TaXml34Q8R7VauGr6IoiqIoxwDNiHL6zyku2P03+b+9nOrJHjQB84B/obgYsl8DPwUuQz1XiqIoinJMUFEl9xBMQjL2PgdMR3SoWhBPTydSi+9tJFNwE5CtSisP4SGCpOcAX0CKUk9BDMZ+DrV5M/AL4DVGUHNXFEVRFKX+qBcDq0AU8RBFOCRnkEOMlt78f2uNRqABaXvh6K/W26woiqIoiqIoiqIoiqIoiqIoiqIoiqIoiqIoiqIoiqIoiqIoiqIoiqIoiqIoiqIoiqIoiqIoiqIoiqIoiqIoiqIoiqIoiqIoiqIoiqIoiqIoiqIoiqIoiqIoiqIoiqIoiqIoiqIoiqIoiqIoiqIoiqIoiqIoiqIoiqIoiqIoiqIoiqIoiqIoiqIoiqIoiqIoiqKUkf8PGchg/tR3CRQAAAAASUVORK5CYII=;" parent="1" vertex="1">
          <mxGeometry x="879.53" y="90" width="190.47" height="40" as="geometry" />
        </mxCell>
        <mxCell id="JxyS_UGYLARrwD6C3Eoa-52" value="" style="shape=image;aspect=fixed;image=data:image/png,iVBORw0KGgoAAAANSUhEUgAAAlgAAAB+CAYAAAD4DG/eAAAACXBIWXMAAA7EAAAOxAGVKw4bAAAgAElEQVR4nO2df5RU1ZXvP+dSlp2enp4OIQSrG4LEuFzo8BwXYVzG+BiXz2F8jjFGjTHGRGPwJ1QVSBgejwUsns8gA9UtKopRoxJj1HGMcYzDOI5jjOMQxudz0OExBAhUFUhIp+3p6bRN9T3vj13VdCNN16176hfsz1q1lO6ue0/VPT/22Wfv7wZFURRFURRFURRFURRFURRFURRFURRFURRFURRFURRFURRFURRFURRFURRFURRFURRFURRFURRFURRFURRFURRFURRFURRFURRFURRFURRFURRFURRFURRFURRFURRFURRFURRFURRFURRFURRFURRFURRFURRFURRFURRFURRFURRFURRFURRFURRFOTqm2g0ISAPQCETyL4Ac0A/05V+1RiPS7ijg5X9WaHNv/r+KoiiKohxD1IuBNQk4B/hj4Kz8v5sRg6UT2A28DfwMeBPIVqeZg3jAZKTNXwCm5v/djBhUXcAOYDPwC+A15HMoiqIoiqKUnWbgBuDnwAeAHeX1W+CfgCsRz1E1aALmAf8C/McR2nj46zfAT4HLES+XoiiKoihKWYgAZyPG0mgGypFeB4G/Ac6sYJs94CLgn4GBEtv9Q+AMDh0lKoqiKIqiOONi4F1KM1KGvn4OzKhAez3gMuBXIdt7EDEqK2kYKoqiKIpynDAL2El4A2sAMdTOK2NbI8gx5vuO2vuvSMyWoiiKoiiKU6LAVRQXd1XM6xfAaWVq64XAXkft/GX+enpEqCiKoihKWYgAt+HGyBoA/ha3niEPuAD4Nwfts8CvkaPRCIqiKIqiKGWkCfgLisvGK+b1d8A4R22bjhznuWjX+8D1qHGlKIqiKEqFaAY6kABwF56sBwlvZE1BNLdcGFe/A+ZSPVkJRVEURVGOU5oRw+h3hDdoDgKPAC0ltuVUxBNWqhTD0Nd/ACtKbIeiKIqiKDVKRZXc9yTxjGU8hlM9yySgwRp6seyzlq1tHUdVYG8D7gUucdCUfuAuxLgJUqqmAfhBvg1hj/NywPeAxYyg4p6J4xnDFGuZgscEa4ka6Law2/psm3i3qr8riqIoSi1SdgNrb5JG3zIN+DPEMJmKBIgPzZTz869twIvA0xa27uulZ/r6YZcbCzyNyC6ENXB6gDXAqvz/j8b4/N9eQ/gsvxywAbgVqUcIwLvLoPkDWjzLWQa+bC2zMEzK//rw7yuHlNr5MZYXDeyIddRkLUZFURRFOe4oq4G1N8EZFm60cCnigSqW3cBLxrA6lmLbYb+bBqxD6vyFpQtYBNw/yt9FEONqNuFjpXzgBcS4Sg/9RTrBeQZuRKQagsSJbQGeNx5rY2vYF7J9iqIoiqKExLmBtXk2TGikybNcYg2rEM9PKd4mHymIfCeGp1pTg14mD9G0+ivcaFvtB5LAMxz5uLARCUJfjptagRuBm5HPxu45EPEYh+F6C/MRw6oUD1k/8B6w2PN4+aQ1gY4+FUVRFEVxiHNBy0/9HlFgkTXcC8Qo/SjPA04BOrAsSM8b9Bz5iCExBz7i3SqF8cCdHDm2K4rIJyzEjXH1FhAnb1wBRMbQYg0dVgy48ZT+TKJIiZ2HfJ9vhm2ooiiKoiil41x3ybOA6Fe5kh1oAuYZH29PklUTU3Tnf/4qsAA5LoyFvMckIIUcTW5GjLgIcrS5lNIzDofyDuIp2waw+zYYM4bxVoy7K3H3LJqxNIR4v4d40a4GPo8YfbWCj8TLbQf+L/A6sA+JY/NDXrsRKTD+VWAybgxqV/QhntZ/Bd5A+lAnEodXDiLIuJuCfCf/BRkjlZQSySGfcRtSiWETcqTfe7Q3FUs2iWctjdYw3ljONXC6lTCGQiLJTgybjM/bFrpaO6rjEc5IYlBTvm1nG8MfWssEwDOWLmvYCbzuGbb6Pt0ltDOCbGQvBz7H6HOdjzyXLFI3dXP+/12MwSB4SH+MAWchc9UEijsB6EE2uz8CthJ+HEWQ7+0U4Fzg9HxbKjle+pE54v8BryGfq5NgSVwjsieON8bQ5FsmY5hu4I+AsRgiWLqs5d8xvA5sNx5drWvKNjcdlexcIv4YmjFMxudsA6djGIvYJZ3W8m8Y3jSww7d0T+wobzvLEoOVjjPOGO5EvD+uvGR9wF/mPmT5p9cN+1KuQYwjFwKiW5AYqM1IPcQHkIESlizwJWSRAGBPkhbPshppv6vFvBcJ3F/Z2l5U4P7heMiCmqIyRbLD0gO8giQ+vIAswKXQzKEEhlrXI/ORyfOHwPOI4e6SGLLYfglJJqmVsk37gJcQiZVNUHpCRzpBi7FciOGrSDWGphH+1Ad2Ac8byyMDHlsmpipnRKQTtJhDz+J8GHHjVEgQegr4ER5bW9cU1c4osolMUfomtRt4GemPG/P/LjdNyHP7KjJPN5d4nf1IWMYzlN6fpiKnH1/jUAJXLbALeBL4a8SYLNmQSMeZYAyXAF9G+uFIzoDC3PSIMTyHx47Y6sqNl0yCSRx6FtMZuZ055Dv5gYUX2toPnSi5pmxB7vmH8iPcFlruthAf+D02TDqBnFkGyKQzF5E7KHWgFfCRL34lIuHgIsZrH3LE+BiAvQLSbUQ8y1LgdkaeNEvh+8D81vaS5RsmIANyBrUzURRDF7L4rkCOj4NyO+JJrCcl/RziyVsKPEf4naqHjNXFyC7cZb90yW7EkFhBwMX8/SQM+JxqDUuAi5Cs5GJ5x1jWYngs1l5eb9bOhRD9kGnIs7iIkQ3Aw8kB71nDWmN5uKsF//RlR/37cxDZmcmlt3aQTsTQSsJR5XbCMgGZn2fhxru+G/g64vUJQgRZzJcj2oi15PEukEMMrbXAegIakb9diNfbx3QMy5G5odjNZz/wDpYlwMZYFt88HeTOxZOdDX4jnoGzsazCcGaAdvYZeAfDohN/x6s9Bv/T69y2r2yLaFsH+4DrkIXPlRXbbGB1pJcb9nYPtr0P8drcQYhdbR4PsXyfxo1xdQCJudpQ+MHeVho9y/8A5uFuEesHnvAM8RDGFcix4NnUl3EF4p6/ClHXn0WwyW4q8C3qy7gCae9pwKNIpYMwHtwGpO7njxHPQK0aVyBHlbcDP0Eyiovqq+8ugwE4zxr+AfFUBjGuAKZZw4MWVmcTzsptfYT340RO/JBLkdqpV1K8cQXSJ6YZywNAqvmDUT/jfNwYVyDf55XAPyCGRznmkFnI93It7kIXJiGhJkEYi3i8HwfOoDaNKzh0/Lsa8fxODvLm3g+5HsNPke89iGc/CkxHHCzf2TchUB8OxglEjaylP8FwDsHa2WBhhrX8dV8DfzEmWoaQKdcXHMreXnYg3putDi87FstSLDOH/CwH3Id4cGole64PGYTPMsTAtDI5xHF7FPUKsKQnF9o9/wUXjakiYxEx2lkU37dPpbbizILSANyAeDtKmciiSJ9cSngPcCU5F9mZTyn2DVaOwcIaR9dbWJROuP+ufnUz3gBcaGVBDBOa4AGnmNFjMV1I3RzOqYjB7/raZyHPe5rj60KwtkaRNe0maj+coEAEOWpeRYB4YgOfJtyc0IxhoT+Gm0JcY0Q2z8azJ3AtMvcF3TANpQn4jDF1ZmBNXw/RKO8A30COblx5siZYywOZBLMy8cHP0IN80esd3qdUepAjjHvIn31nEkQzCa5CPG1hOsNQfGCTgW+d0M+Oz64Nfb0gWmW1yhQk8eGsIv++hfqZKEcigmi0LSC49+ky5HjUVZ+sFB5iZK2jiLafvgyMxNosIVycUCMw18DydNzdztxeAWNO5Px89nXRRuORMPC2Ndzq2aMe1TVQvmc+mWBjcDSmIvGwpzi63uGMpbg5oAHxltxCbXt5j0QhaesOijSarMTm3UO4k6EWYEkmwU2ZhLvvLJsgGmvkWuTzhEpCM/CUsSwxxr1Qd9mPgj55F4zJ8ZYRd/Ruh5c+BVhpRJqgQCcygb7o8D5B8ZESOPcwNOPJMgv3C9nbwK0GsuPvc3jV+ieGxEYU462ot+PQkWhEdtVBduMTkO+p3oyrAgUjazZFHNPEUuQs3G/F2x1mMo0As43hpkzcjXGebeVMI56rySEvtQWY05ZiV6zjqH9X7n4/FZnzw3r6GpG4rjNH+8OQFPN9TEcEost35FVeIkgYSFHl5lrb6USS1Z4Ned9mZF2+MuR1DmGYZcWJEfb04Q1gQayDbCzloF2HUZHFZcI9+AOGl40hzgh190pkmjXcm04wdYgnqwsZ2C9SeU9WPxJvdQf5XfKeuXjZOGchO9PJDu+1w8DNFt46qd3hVY8dzkO8M8eKAVUM4ylesy2CaMmVyytQKRqQWM8zivnjtna6PVk0NhAunKARWITh+kw83NFCOs405FitqM9wFHYAcQxvhryOCzxk/M0MeZ2zEaOg2jGSEcRDXO9e/hbkpKcob1Jriv1ItZMXCSdnEQNS2QQXZJOlP8t0Ai8b51wrGfhhnoUPvGFgTqx9eEUVl1Rs8ZmYImd9XkQWgAMOLz3DQAdm2EKxDTGyNo3wnnLxHNIZD0C+uLXHdGt4CLcDc1e+Y2xqa6/6cWit0oSkcddzfFUpzEBSqUfjNMoXjFxpTkVSyIsilqLb91jEyNUbimUssBKPS3clSls0MnFixtBBeEmMLJb5re28EktVR4PoCDQgRkmpRziNyDxeC0f40yluXNUDpyHHhUXR2s5uDElEezIMYy3ci2VmOlFyX59hDWsJvzHcCiRj7bwV8jpHpaKTa2sHOWt5AjkqczUJeMBMC6v23EZzdvbgz7cig7OUtP2g+Ih21gLyKcp7koChzcjO1GVg5n5jWIykRCtHZwYh41nqkGbgTxl9x38W9e+9GsqVBJjPGiIcMLKTfyXkfRuxrDzBMit9a/H33xOHdJIJ+SOYsFI2B4AVxlQ1NGIkzkBqq5bCOYhhU2084IvUhqHnii8RII4slmablaPa7SHve4qFlAenvR8v/k17kpCd62w9TQMLYi3ld8BUfPfa1kFvaztrMNwFJYlhHomIgYu9COtoZIJdNvjzNxDh0HIaWX7+PteRjzGzV4DnM8XzeQS3sgedWBbFUjxRbi2eY4RGjp1dZ7F4iPF0tCy0KPAn1F+g7tGYTIAjtk/eBbF2dnki0fE64cIJpmB4yEQ4b8jcc3QsLcYOituGmR96gCW9A6yv0TmhBRF+DJq92Zx/Xy14oMcjht6x4O0tMJUAm0/zNHx4Ilus4euEEzf2gDMsPJ4zTNtZhCcrfSt4llOsxyOE12jcDdyc+5CX8jqaZaVqHcYYViNxEC49WZcCi/d2DftcbyDHdqWqfI9GlsM8ZdlWxmFYgQTguqIXS4cxPOHwmscDf1TtBlSB0eQIPMLH+9QaJX2mnGGfhflYtoS8/3gMqzJdo2fO7Z1D1POYj2i3hZmD+4D7PZ/vf3ZtTYcKnEfwZzOZ0j1frhmHm4oetcQ4Aqr3f2Yl+AfZbGW9CxtLPQ1YFbVFtOEEGhFx2Zkh79mHYSkeL316XWXGS9UMrN8203mCz3xEzt/VzqvRwi0W/mc6OZjp4SMBerfiXmF4O7LL2pS/D5k4LYhey1W4E6DrB+6MRPjufw64TyU9xjm12g2oAhM4evZWoZD6sUbgzzQxhW9hEx5fhdAlM6YbeDCTGDnjLZOk0fdYiqT7hwnczgFrPFjulSG93DEtyPwbZL25mfA1Zl0xFjel2GqJFkrwDk66h5w1vGzE8xtmPY0AF2B4aO/ckY3XbJxxRtbTSwk3XjqBBfg8Uck6iVXLzMiXcOjNxFkMtGC4CDcGnwckjaU7Hee+Nil+mkNSTZsQIUoXn3s/ErD/RuEH2STN1rIA6QyujNcc8IRnaf/U6po8AtiOxLuVa0fQjKRolxoo24w8C5ft6+NQ8eFyUFBgLtU4bOTox38e4dLns4gcgOuFvQ05uijl6NIDPlHKTSdKFu57mQTzkRiPSaVcJ89ZwMpMkm+3pobL0thlkP2Ab2K4hXDxPL6BZ3xYeVJpNUfD0I2UlZlBsAX6fCS4uphwjcnAxQHb1Qm8iYRkuJYdaSDccfpWpGSNy/nbQ76nUusfRimxD05MQSbJS0i5t9WUPpd4wEzfY3kmweLW9uHJb5kkTdaykPCeXoDVHnz/pAoXba926isDPrs9jzlGOvAFji7bAqzwDJ3pBE+2SWxCH6L0PgEJRg+jZdKVv8bz5I849ySJWst8IIG72BYf2IBhUc6v+ERaLC8gshTl6rgRDj2zb5bwfi9/DZftO4AESLsutFzAQ/rQJYh+TNAMVI+jT0ij/X4kehFX/WPIGHBtVEcRw3IdpekehZvPDC9giSA75jBHQudjSaXjzG/rYBeI0HD2A67ML0phhBFzwDNYFrZ1VKSw8uHchyQpXYl8T8XOdS2I12MRRx+LEYKXwskh4+QJpC7t8gDvLYbCHBKUfcjcWCgm7Xq8NCDHZisIvhkrdQ4AoDVFXzbJY9bSjHzfpa6nUfLzeiZOsrVDtCMzCRqw3IaU8AqznvYBD1vDmpNSlff0Vt3AmiTq47sySeJYHsVd1kiTFSHSnux8no+tJocM7LuB30cGYilHeF1Ih3qKgnE1l6hnuRb4ixKvORIvY1iY1yKpVfqQXW05dwadyMR8PuG8C67wEWOj3Avcw8DJwHeojQDbt4DvUt5nfQAp2/M4FS7d05oiZ5fxTLaLcYgRUaohFAEu9Qy59Dy+3baGbuASLHcSPmj7VQMLYx1ORZuD8Cuk3z+JZJVNLfJ9HlLC6lGOvjGZAvw5webRXYhx1QXl0zQKiI/I9nwP957eAt2I8RZD+mtFk1ZiKfozSdZj+SSynpbqlY0CNxjDr7Jx7vYtOcToWki4z5QDNmBZ2tZenWP0Wpi0ATB2UFYhbLDpUCYAq+wAM3918+DPupBdxaCBFICCgTY4aHbPI+J5XIXsIlwZVz7ihl9Q48ZVJemi8rpm1SYH/D3VL/1U4KdUptbnVsLHQ5WEWQYYHkMy/MIY0J6Fy4zP0kyc85E6cGGFETcBC2LtVTOuhtKDFBAO0jdPZfQ6oTMJlobv59tRruP6UulHxm65F3YfORqthjeT1hQ9xmclcjoUJrbJs7DAGm4yHpcjTowwnl7fwEbjsbi1w6nuZiBqxsCKteO3tvOaMdyM213IFOCBSJSz993+EbX3Zyl+wehDDKs7yMtL7EnieVICJ4XbLJPNFm5ubS/bEVQ94uM+SaEeqKXPXKm29OC24kMgWlP0HjSswdBOOIMyAtyG4SeEr+LwNnBrrIW3Q17HJc8RbEMcQWRzRjpOigJxgm1Ut+XbUWv4ULHN8X4qs/E5IrG76SLHIoKtp0eiBXFUPEA4T28Ow0ZruTm2proOipoxsAaxvIHEt7j8YiZjWOX7nDbkZ4USAMV4RXwk3moF+Q70n98Az3KOsazEbVDlbmNZ2NZeEYFUpfapFe/VccXkdvp8nxRy9BRmZ15yMPEQDgALewfYXAntngDsBl4i2PczBfFiHYmZMGyOHg0fEVyuirdTOYS1dFtZT8MK9zYQfry8Byz0veofF9ecgRVrx+9vYQM4rVvoAedanx+l48Pc9DuQcipvMPJCVpB5uA4JWgSg6+Oci7imi41BKIbtGK778OOhSxIoihKSiR10WdGreriKzdhl4BsRyyufXVvFVhyZfiRWLuhCdisf9VC0IDFdQdakfcBDlP8YThmFtnuhrZ0d3gBf5+jrabnZAnylNcU7E1PV35zWnIEFcPIy/IYBnkFSQHsdXvoMY1iVTg4zsgpCoUdydQ/GQg1tRybOKUg2lUstoW5jWNRvefXkZQ6vqihKybStoTOf+fdqFW7fDywa8Hn5Ux3VXyxG4D2Cfzdn8FER5rNhdJHWw3gdtzG7SkhOWsuBfEmdahxl78jLJG2rwr2PSE0aWACfWEvO97kbyY5wKVFwubGsziQHd1CF4NHr+OhObBMieDf4wDIJTsOwDpkQXHEAmI/huZO1eLMynJodo8cLrR3ss5abgY1UbmfeBSzE46mJd9ek/l0BH9EWDBJkPRYRaC5kiTYCXydY3E1P/r61UthaOcRmY7kRSVapFAcw3GgtG1traA2t6cl74t30GMPdiIve1ZcWAS7HsiidGBzgPpKCnoTBDJ2t+X8PimjuSTIWyQY6H7dCoisMbIhVUGFWqRvCZNIojmjrKEuW80j0Aaus5Xuta2pnsTgK25BYrCBcyCHtplMILiz6Cuq9qkna2vFjHWxGvEmVyHjdDyzG8srEu2trvNS0gQUQS9GNZO5twF2mhAfcYGBBZt4wrZ3nkQD7zYhxtRnylbzjjPckdXu0NOMg9AFrjGF9rEo6HUpNI+Uk6mCcHg/EMmwB5lDeygX9wHrg7raOmhUXPpwe4GmCxcw2Ad9GkgC+RTDNs678/WpNmkEZgjG8hGhZlTPYvAe4w3g8VkueqwJ1MXG3trMfwyLcpuM2Abfjc8ue5KDgaj9iyH2FIdkxZoBGK8Wbr8GdOGs/cL8xrIxVQWFWqXkakZJLXyf4OO1FA3+dY56GvhN53UoCzq4y3KIfeMzC8tbKl8AJg494lN4K+L5ZwNUE915tQebnmltQlUPE2snt7eUpKyr75TCGe4H2rhbuia2pzfmu6kruxdKaIptOsNBImu9ZuDEOG4D5ns++vfPZcNLqwSO6HQCbZ8OERqJGyt9ci1sh0eeBO2Kp6un91CEuVfLDMBbxdJbr2UU5VJevFH21btwmhyh5PrMSf/dtvDImwiLgQdypzfvARgxLW9N1OSd0Aj8gWLmzCYj0TVDNox9C9cQjleKZvh4/E+dJDG2INytMibqh9APfN5A6fVntGtp1Y2ABtGbYlY3xDQyPEzzjZCTGYVhlpdbfM0N/Mf5jRI3llrz3zGUZgpc9w5yTUjpJBCCKu2celibgsmo34ihk0eOTsjHpHnJ74zzrG5rBmQ7eaxa+3ZY6JAVThzyFZFwXK11T2EgEYTtSpkepE1o76EvP4S/NGHwk3McFG8wYFsRW1/ZGsi6OCBUFOIdgJTQK+Bx/mUbboa4X6pqntwHfynfsKi6006t/r2MfootVLo+CjxhXVSkLo5TOvg/px+2cdOA/+2vzWHAodeXBysaYjOFR4EyHlz1gYIHxPhrftf939E9o5D4j8TBLcXdEdYFvuTeT5MbW+vdiTUI0bcplxDQDf4LEv5XiRTzA8RWr0Qf8I7oIlQ17BWT7OBvDWtyVyLrUQjqbYEmsvW6fXSH04Su4naMLbAX+iuNvw1TXpBNEkFg7V94rgJsaPX6dTXBfrL12NyZ1Y2BlksSQsjTTHV62D0gNGDZMXD1s0E4BdkxfD0B/eg7tZgwn4y4OywMuxrI4m2RFncdhXQlcXsbrRwjnad3uqiF1QpbarM12zJBtZRoigjzZ4WU94HoL76eTtLelanfRGIVtSPmaabg9IfERQVMtIVZvWGYaSRJzWa+3GcMCKxvo7zu8rlPq4ogwk2A8ljuRrCpX9AJrDNwzMTVoXEURT8mPkAyXggHaaySoeQPudk9R4CZrWZhNOo3vqjQR5LOU6xW2j/485PvriX4k8LqWCkQfU2QSTAU6gBlluHwTsNBYZmfn1kxCR1BySB907YXrA9ZRxaLGSjAySbx0gnONoQM56XDNeGBlJs7F2URtOotq3sDKJmlGjJtrcJvF9z1g5WHu+EsRN+Z0IJX/L21rIdbOfl+E0zY6agPIkdc8a5mdTdS1kVWrdCHlNI4HCoVvq1k375gmkyCGCA3PpHxzZzOw1HpcnonXrZG1DXjB8TU3osKi9cY0I+uoy3q9hzMeQ8rCBdlkGe9SIjVtYKUTNFnLXOB63CqnP2std7QeMq48xJhazSFL+zSkc5xWuPfEDjqRLJlXcKssv8TCNdl5tWmF1zGvURkl4VpgK5LyXu8xfTVJJs54YDmiQF5uWoA7reGinYkK3K08PII7GZNupKizUgek58DeOJMQT28lMr9PMbDWwml7E7Vl09RUY4bymzlEDMwFFuFOOwPgOSzJtg725//tIXUFH+WjKcMzELf0aYUftLbznhU1500O2zQOWI3l0p011kHqmE7kmR7rBoePxKV8C3iT4yugvyLsSdKIYRWy0avUJmiSgYeicO7OZXU5J7yFu9qNryJ9W6kDjMcU37AOy7lUyMawcAqWRy1M23d7Je5YHDU5cHcuw+sbw+VI7a9Gh5d+z8CC1o5h0v1tiOfqtCP8vQech2jdDLajTYysheQFSR3RbC13Rg0zdy5zeNXjl5dxe5xbq7yKlBxxafAreXbfRoMnXvSrqfx8ORZYHe3iTHtFhe8cni7gJxBakb43f516TgQ6bsjOJoLHHVSnxNdZFlb5BwML15aNmjOwsnG8aBfXIu5FFwJ+ILuoN63hKye1DCtxMQVRHz6bkb8LD7gIcXkPZkF09vEa4jXY5qiNIFb4I9EuZjq85vGGj9SQjBN+cq9V+pHPuAj4U+AN1HPlnHSShrxi+xKql3E9A3g028oZVbp/GJ4F3gl5jW2I9pX27xonE2es/RjrsFxJdapuRIALrMfj6SRtdlkVWnAYNWdg4XEOEmju0gpNA/OjH/KeWTb4s/HAnRSXDeQBlzBEC2va/RCN8hqyyLnMmJmEZEaUMzDwWGYL4vncP9of1iH7kcUmjmgN3YVqApUFewVguQopk+XSi14KZwArs3GnshCVoA/ZmIbhUY7djdIxQzZB1BgWYLiKatsVlpnGsjzb5cxBUzI1Y2BlE3iZBOdZyzog5vDSu4BvRyxvjr9vcBfUghwLXkbxlnYDcAOS0dgE8Mm78D3L88b9gj4dw7pMoiTl8uOVPsST82Ukc7CcO94s8EXgMyW+5lNaMebdSP9bjxxPV3pXX6kJq4EqGjXpONFsK9ca2YCFqTXoAy8iG7OwpYsutIZUJl6WdPdyshHxtpbCFkS4tF5xVadyNJqooqZlNk4DMNfCPMLFS/cDjwF3E66qQRTRrFyeSTiN3w5MzTPzH4UAABOkSURBVBhY1nAaYvS4dIXvN7DQwiuf6hhmXC1GBDKDdsoIEnh/A3lV8ZM6yA0YNljJ4HKl0VKI/VqVz15Sjk4WWQy/ggiLltvwyCFe0R0lvh5GxECDtvMM4Drc1sUMwucrdJ9JwCkVutdHMIYLwIkw4jtYkl0t/C8kIzmMJyYCXIJheWZexRZuF+xD1NeDzo05ZIykR/vDGiUKfI7KrLHTqZwxN4x0gqg1XGPlJCfsseALwBIMyxFDK8x6GkHW6US2ikZW1Q2s3XMgHWcylg7cqrT3YFmM4bm29mFConOBmyi9M7QgO9JBA21iij4rulprKM0zMRIXYFiZSTJhz1yHV3WPX8FXP7JQHUB2uP8b+O/IcVm9TMZdiEEYVNenAem75ztvUXHMRLy+LRxS2Hf5akCO7uNIZm1FSc/DyyQ5GzGGwniKfOTZxls72Hb6MnwD7cA9hNuZe8BV+CzNJmkJcZ1KkkMWzqAJQbuBH1O/wqIRpMLFTA55mMoxXs4EvkEVPL575+QrkkhITxjvtg9sMh5zYi3sjqXptBL3+BzhQiAagAUWbtoTr46Hr+q6S2M8JgFrcbtodCGZfxtiqcEB2oC4DV0ErLYggoM9iAs7N7GdvnSclcbQANyCu5I612AhYphDbcYivEHlgqx94APEkNqOBNBWq6RI2NindxBdpR8QzCM1DpnQ3qF0ja+CsRp0gzUWial5A1HId734fRqpa1nq0XioPmgs07HcC5wa5jqIMTGnd4DXCj+ItdP9fpIVOZ9mDLMpfQ6S+cWS25lg8cntFY/BK+U73oIYWUfK1B6JlxGph6CU4/sojJegTEW8dy8C/4bb8RIBJiIJWKVuBkoeL3uSeL7lQiNrd5hTFh+R4LgxtmZYBYoDe5LEPUsToj1X6nhpBu7wDNnsfJ6Jra6swV41A+vdZfDJThoPwh0YLsSdN83Hst7CfW0dg96kCLLzXoq7zzweMeIOIIKWtHXQlUlyB5a2/P1cfKYIcLVv2Lnrdu46+CF9n13r4Kru+BvguxxfWT453Bh2LwJPAN8kWF+ZCiSRzUIpRrePtL8U13kzUkZqVgnvLSc+JSab7LsdDvYzHstawhcp7jSwONLPa5+9b/gvPpWiN53gDiNHj5dS+vzQYOGWEy2//NVcHp60l5x5OmSri6fUhJ5HkI1nMZ6WfkRYtJQ5pRyb0H5KN45aEImPWqOfEk9b9iTB85mR14YLe4y+G0MS89Eak/Yg++wYFhhDC3BOiHtEgTusT3c6yYttqcqtVVU7Ivx4N2MPeqzOZx24SunsAx6O9rO4rWOYSvvFwL24DZ4HiRP5AZKJ6AG0pjjgWW4lvHtzKFFg4QkH+c7vjampkjr9SIzF8WRcgRgnLpIa+hBv1KsB31eIL7imxPv6HJsK978K+obfzAE/xxTP41GGjOMS2QfMMfDskISaYbS1k8VwKyJhEIYma7gz4nHTvljFNsph+v12ZDNRDM9Selmc/bj3andz7OlwlfSZNs8Gz+cMDI8jMaFhxst2LN9oTbGpdc1Hx8uke6Ctg/es4euEl/uYjOUhz3J+JeUbqmZgWct8ZIFwNTn4RtzQy7siwwybc5F4l3LFLMSQ4PxBWYXOj7MfCfpzKf7YiCFObe2Gujg+Cwvvxp00xw6kfwZdFJqQPnZ49YFi8HGr31YLFBTtA9FzIk1WjNywIQo54E4Lz540yrFda4p91rCY0o7AhjIWWDxQuZi8LKUbGv1ITNVolRW6gL+m9FjWcsxJBzj2ZF86kQ1BIE76GKdgWI1oSIZhP7DEM7wx2h8a2IVhPuHnrPEWVma7nMZ6H5WKG1jpOI2ZBPOwfAd3JXB8Cy97Y7ixH9JDjtDO4bBSN2XAy9/nEfJn4acvg4YBtlnLdcDbuPPwjLVwZzbJ1dlETRSC3Y3UwDve+FvH13sFOW4OuqhMQgKygwaE54B/4NjS0OokoBxANs7YE3KkILQwYg+w3FjWt7UX9wyNLBbfgtEXmFGYYAzrsglmZcsfyPse4RJJXsu/jsabhKv1miW8t+NI13yPY8tTvwPxKhZNJk4Mw4OEV2nvtIa4hadG24wAtKbwDbyC5VuET2Q6E1iXSVakRmJlDaxMnIgxXI3svJ15roA3jCE5YTWdJ7cP/rwg+1AJwc5CsehV5I8hP7EWrMd2JCPKpREy3trBUgTVZhPH5lHT0ehGAnBd4iNZqKUsLLMI7gkuqN3XS9ZlMbxIAAM1k6TJGhZYQgsj+sD9WO6LdRR//9YUxDK8jSFJ+DE0xcrcEzZ+7Gj0I4kNYY7KuoHHObph/wPC1Q/tAn6G22zuHPBT6jej8Uj8HQG88Nkk4zGsQLIiw4yXLmClsTzb1l78XBdL4bd28DoisRTY8zYEWastK9OJ8mvKVczA2pMkYg0XIzt1lynYbxvDHGOHGTGnIsZVMSrtLrkU+XzjASam8I3hdSu14ly6mCdbWJtNMCNdveLQfcADHFu7utHwkfiQXWW49j5EeynoYls4Kgzq9n4bif06Fp7ffmThLopMkiiWWxDJlrDCiE9Zy/LWjuCGh3kauv6ATUZiNneFaAfAGVbEiafuLc+ckAaeInx/eZGR46t2ED42rVxj9CVKjwurNQ4gOlNFkU4y1lqWEj48pd/AqjEe97S2l2asDvg8ibQljBEOcL4Hq7OJ8lZHqMjivO82vDGWC4wcZ7hUg96GYU4sxduxQ9bwWMS4uojKH4FGEW/CYvLCb7EUfls7byCeLJcegykW1hk4a2/C4VWLw0cG6LEy4RTLbuBByiMNUUhXXkXwnfJ4xDgLksTRi9T7rPfg3RyyoBZ1PLgnQQOWa5ExGkY7KAc8j2VBW0fpmWunL4N+w0sWFhB+0TgL6LDuRVpzSJLQLgfX6kf6+OH9rhvZnLoYW7uR0BCXR+B9SLtdlkWrBv3IOlxUX9szlwYj8dKzCSdw3G/gMS/CXRPWlP6MJ91Nv+/xPeRZhNKUs3CZhZXZ+eUTIi27AfLr78BAhLOsGD0uXXK7DCw0dlgg+VhEW+gih/cpheuB2xg+gT+HLIIuB+iZwL0WYvtvcXjV0dmM6J8cC96PYskhBkmpZT+K5cn8K+jicC5wM8GMhneQybaejz62I59h1HH1fhLPSEbxcsKXwNlkLQt6/fCbpsnt5PwBnkNkZMLIDHjATAur986l+d/nhG0ZIJ/1JYrPACyG5xGv6w7kue1GJEeedHiPJ5GkJ5dzVOF7qNfYRR8pXVSU92pPkgbP4yZEXiNMSE8OeArD0gl/Gf67m5jCx+d+4D7CC/deZgdYkknQvCcZtmVHvkHZeHcZ9B9kGlKwc6rD+3VamB9r57nYoSC5JiQbaLbD+5RKEzJhzCXfMVvb6WttZz1ujSwPmGHhoYNRpjiaUEdjB+KNO568V31IeZt7KL8x0okstC8FfF8D0t8uDPAeH5mk7sFtzEql2A7cSBHZRe8ugwHL+UaOtcPItfjAm57hurYOdrnSpJu0lpyVPraEcHULI8BFvsfaj0WchGK8jnjXwsS9HE4PUk/zD4E/Ak5H6s+53HzuBxYicY2u6EbGZr3WR9yM6OcVtSnwLDcgm5EwGfi+gResRzyWcpfd2Xo33Z6U1LmfcEZ0ofzdYs+6TxwrqyHS8gFTsKzCbRZfN3DniScM6+QRxMr+Ju40tcLSgBT1HSY4aizrkYBmlwva+cCKpkjZ61HtQD7Tm2W+Ty2RA76PTKyV2rnuQha1oBlmzcjRVxDxv0LVg6JjMmqE3QTsi1YEC8OWFHnbWOJewAysYmhrp88aHka8/WH7Wgs2dCLRW8iCXK5M4V5kTilXhYptSB9x6XUuGG4vUV8e/MKzLLrfGjkRCjNefOBFa1jQtsZ9KMJJKXqsSNyU4vEfSoQyyTiVzcBKx5mA5RFwqtLeCyyxhrsH7OAX2oBU8V5M+CK4heyqK3AzqYxDjtIGBSEHPLptjsXIDs6VNyQKXO1bOjIJpzFuBQolgb6IHHUeDxS0ouLArbjdwRfDVuBLSI3FILE5ZxFc920/8jlvpvZlN3qQQOn/hvTJosbQ6csAeAb4MpL9GnRC7gQ2+D5/5g2w+VNlUoNuS9HtW75rpb5cKXID+4H7vTF8zfol99lOxKP0RcJrdVWbd4A/R+rEulrktyOF5ZdS+XkhKJ3Ihv6LBNywWctd+QStwPpywD4M3zUeX/PLsBkpYHwO+AN8GzGkSzmuTwMLfJ/5lOF0wri+IEA6zjhjuBOJRXJlXOWA+4xl4WHp0NdQmhbQkdiCLDKbEMPwQcKXAgDRUfkyQ3bbmQTjkEBMVyV1QAzQNcDK1vaSdoW/YHg2mo8Myh8gi1PYINxa5HokgHeocb4fyZh6FMm2q2bMRRS4BPgaIskw2iaiEPS9gOAZiRHEQPtW/p4u+r4rcsizuBcxsErKyt2TxPPgFCzXGbjGji7U2g+8ZSBlLRtbO0Id3xXNLxfiNfRzBpabkTlitHpv/cArBh7A8HIsNer4bwR+y3CPfx8So/NDZCNVj8fGI9GA9OmvcuRx9PsE96RFkHXiK0hh54oXXD4KOWSc/BCJRSvJS7gniTfGMt3KnHAZo6+z/cDzFh7N+WycfHdl4jvfXYb38S4usDJPXsbo2cE9wHMGHv+whZdPXlaeDZNzAyufAr0KuAm3JXDWW8vytkPp0BHclsApGEGbEMMiggzIB3BjvL0DzEFiGvy9c8AfwyTkOMC1kbWwtZ17Snjv00gG0n7EGPx7pN3d1Jc7PAiXId7PfsRj9beIUbmP2llgPGTyPgVZHP4YUVIuHAHlkJ3YZqQ25FZkAin1mTUgff5C4PNI/GQTMp4rEd9YKK7bhzyHzYgO0VbkSDN0X0wniHqG8RbOw/JniLRLE/L5+oEDBjZb+LG1bP2YT9cn1lZ+DGQTNGCYYC2zgD9BnnvjkHbuB/4RMYy22oP0tN1bVDsbgH9GvssdwD/lr7EDmUOOxfFeGEdTEB3BzwOTke/ic5QeMN2IJHCdD/xXDj2jCJUbLzlkvKSR/vAq4jkKMw8AkJ0Pvk+DBxOs5RLkezuVQ/NBv4WsB/9oLRvx2HbQ0js5gM6VCzLzwAzQiMdka7kI+ALyfIfOk7uw/MwYXgR2MYbe2Orytcm5gZVOEjWW5UhMlIuYoH5gvTEsiaWG7R4vQIyrUx3cYzey43/qsJ9HEQ/HCtwYWW8BX2eIyzU9j5jxeQj5PC7EV/dbWNrWzv0lvHcsMkjLIUNQqzQiE6yThbuCNHLIIOihfHEsIP2yOX+/StS985Fx3015P9cgOxNET5Rj1QjQk+2lZ/r62usPOxfQED1Is7F4Zgw9nc30nl767nsc8v3WykaiGjQgffsA7sZ/lEPjpVIGVi8yXiryLLPzabA+zcbHy0XoGfh9ek5eVok7F092NvgNNBpDk/HwrE+3+R29sfWVa4NzA+vdZfAHH9BkLFcisSDjKL2TZTGstVKCouC58pCg+b/CTfB8J2JcbeDIZ7CNiLG4gvAxXiC7xJuRnSLZOFjDJAPzLVxL6cF2OQPbrGHxgOWlSUWW7FAURVEUxT1licEqkEkwHQkQvphgHqBO4FUDq05q4U2zbNjvpiGxS+c4aGIh7bZ9lL+LIBIQtxC+fqKPnI3fypAYGXsFZFu5DAkqPI9g5/m7gBesZXVbR1lUxhVFURRFCUBZDSy7DLJdNGOYgeXLiKE1gSN7tHzkeOtl4FHP8rbx6TxpuM7MWCROaOYI1whCL6L/s4LijiHGIUbWDQ7unUM8Zrcy5Dju/ThezmO8tZxrJBhzJuJqPtL9cogX7HkLPzKGrbE/oPcwY1RRFEVRlCpQVgPrcPbfTuTgQaZiOBVLG4ZGxMDYZwxbTziBLZ+8a8SMrTYk5uoSB03pR7xWSwl2Zh0FHkEyRsIG8OeQ9NnFjJA+/Os5NPR7nAVMMR4TrAihdWNIW58tbR3lS39VFEVRFOXYpxmRTPgdYEO+BpDU1VL1oiYDP8lfJ2xb/gPxoCmKoiiKolSUZkSs8yDhDRoLPE54fZ824O9wY2T9DpHqryUNFUVRFEVRjmGagP+BeHpcGFc/w41mFkiw/T87atf7iBxEJVLgFUVRFEU5jikUYfwAN8eCPwPOdNg+D8lk/D8O2meBXyNJAGpkKYqiKIpSFqLA1bjzXP0rUgKkHJwH7HTUzl8iSt2VEKdTFEVRFOU4YxZujZYLy9hWD7gK2OOgrQOIMTi1jO1VFEVRFKXM1KqnJIKbci2bkKr0Gx1cayR84ElEIHSHg2v14K6Go6IoiqIoyiAR4GykAGkpnqCDSNHbch0LjsSF+TaXml34Q8R7VauGr6IoiqIoxwDNiHL6zyku2P03+b+9nOrJHjQB84B/obgYsl8DPwUuQz1XiqIoinJMUFEl9xBMQjL2PgdMR3SoWhBPTydSi+9tJFNwE5CtSisP4SGCpOcAX0CKUk9BDMZ+DrV5M/AL4DVGUHNXFEVRFKX+qBcDq0AU8RBFOCRnkEOMlt78f2uNRqABaXvh6K/W26woiqIoiqIoiqIoiqIoiqIoiqIoiqIoiqIoiqIoiqIoiqIoiqIoiqIoiqIoiqIoiqIoiqIoiqIoiqIoiqIoiqIoiqIoiqIoiqIoiqIoiqIoiqIoiqIoiqIoiqIoiqIoiqIoiqIoiqIoiqIoiqIoiqIoiqIoiqIoiqIoiqIoiqIoiqIoiqIoiqIoiqIoiqIoiqKUkf8PGchg/tR3CRQAAAAASUVORK5CYII=;" parent="1" vertex="1">
          <mxGeometry x="1076.2" y="608" width="147.61" height="31" as="geometry" />
        </mxCell>
        <mxCell id="3LeUHtY_HDgvqQSvzQsu-1" value="" style="endArrow=classic;html=1;rounded=0;exitX=1;exitY=0.5;exitDx=0;exitDy=0;entryX=0.5;entryY=1;entryDx=0;entryDy=0;curved=0;flowAnimation=0;" edge="1" parent="1" target="JxyS_UGYLARrwD6C3Eoa-35">
          <mxGeometry width="50" height="50" relative="1" as="geometry">
            <mxPoint x="970" y="660" as="sourcePoint" />
            <mxPoint x="1400" y="660" as="targetPoint" />
            <Array as="points">
              <mxPoint x="1420" y="660" />
            </Array>
          </mxGeometry>
        </mxCell>
      </root>
    </mxGraphModel>
  </diagram>
</mxfile>
